<?xml version="1.0" encoding="utf-8"?>
<!-- Generator: Adobe Illustrator 18.1.0, SVG Export Plug-In . SVG Version: 6.00 Build 0)  -->
<svg version="1.1" id="Layer_1" xmlns="http://www.w3.org/2000/svg" xmlns:xlink="http://www.w3.org/1999/xlink" x="0px" y="0px"
	 viewBox="0 0 120 120" enable-background="new 0 0 120 120" xml:space="preserve">
<path d="M61.3,110.3c-27.8,0-50.4-22.6-50.4-50.4S33.5,9.5,61.3,9.5s50.4,22.6,50.4,50.4S89.1,110.3,61.3,110.3z M61.3,12.5
	c-26.1,0-47.4,21.3-47.4,47.4c0,26.1,21.3,47.4,47.4,47.4s47.4-21.3,47.4-47.4C108.7,33.7,87.4,12.5,61.3,12.5z"/>
<path d="M79.7,56.7l-24-24c-1-1-2.6-1-3.5,0c-1,1-1,2.6,0,3.5l22.3,22.3L51.8,81.1c-1,1-1,2.6,0,3.5c0.5,0.5,1.1,0.7,1.8,0.7
	s1.3-0.2,1.8-0.7l24.4-24.4C80.7,59.3,80.7,57.7,79.7,56.7z"/>
</svg>
