<?xml version="1.0" encoding="utf-8"?>
<!-- Generator: Adobe Illustrator 16.0.0, SVG Export Plug-In . SVG Version: 6.00 Build 0)  -->
<!DOCTYPE svg PUBLIC "-//W3C//DTD SVG 1.1//EN" "http://www.w3.org/Graphics/SVG/1.1/DTD/svg11.dtd">
<svg version="1.1" id="Слой_1" xmlns="http://www.w3.org/2000/svg" xmlns:xlink="http://www.w3.org/1999/xlink" x="0px" y="0px"
	 width="59.593px" height="39.695px" viewBox="0 0 59.593 39.695" enable-background="new 0 0 59.593 39.695" xml:space="preserve">
<path fill="#FFFFFF" d="M18.439,26.498c0,0.904,0.745,1.451,1.775,1.451c1.557,0,2.785-0.862,2.785-2.418v-1.22
	c-1,0.399-1.481,0.441-2.238,0.567C19.731,25.047,18.439,25.173,18.439,26.498"/>
<path fill="#FFFFFF" d="M40.899,20.799c-1.619,0-2.566,1.241-2.566,3.323c0,2.103,0.969,3.365,2.566,3.365
	c1.641,0,2.587-1.221,2.587-3.344C43.486,22.04,42.519,20.799,40.899,20.799"/>
<path fill="#FFFFFF" d="M51,7.488c0-0.438-0.354-0.793-0.793-0.793H0.793C0.355,6.695,0,7.05,0,7.488v31.414
	c0,0.438,0.355,0.793,0.793,0.793h49.414c0.438,0,0.793-0.354,0.793-0.793V7.488z M8.977,30.009c-3.344,0-5.532-2.303-5.532-5.688
	c0-3.512,2.209-5.776,5.574-5.776c2.902,0,4.837,1.151,5.089,4.151h-2.923c-0.211-1-0.989-1.958-2.145-1.958
	c-1.62,0-2.587,1.262-2.587,3.49c0,2.166,0.925,3.531,2.524,3.531c1.282,0,2.082-1.063,2.313-2.063h2.881
	C13.792,28.695,11.858,30.009,8.977,30.009 M22.961,29.695c-0.147,0-0.168-0.621-0.21-1.104c-0.925,0.926-2.208,1.341-3.512,1.341
	c-2.398,0-3.87-1.255-3.87-3.294c0-2.84,2.587-3.183,4.732-3.455c1.935-0.254,2.65-0.424,2.65-1.309
	c0-0.988-0.631-1.646-1.956-1.646c-1.367,0-1.935,0.467-2.145,1.467h-2.797c0.168-2,2.087-3.466,5.221-3.466
	c2.187,0,4.926,0.698,4.926,3.726v4.69c0,0.988-0.41,2.05-0.01,3.05H22.961z M35,21.304c0-0.105-0.812-0.127-1.147-0.127
	c-2.062,0-2.853,1.473-2.853,3.449v5.069h-3v-11h3v2.04c1-1.409,1.812-2.25,3.431-2.25c0.23,0,0.569,0.021,0.569,0.063V21.304z
	 M46,29.695h-2v-1.494c-1,1.115-2.022,1.683-3.517,1.683c-3.008,0-5.039-2.25-5.039-5.763c0-3.428,1.621-5.678,4.504-5.678
	c1.281,0,3.052,0.526,3.052,1.64v-5.388h3V29.695z"/>
<polygon fill="#FFFFFF" points="57.167,3.82 58.647,5.838 57.51,6.696 55.987,4.571 54.506,6.696 53.325,5.838 54.807,3.82 
	52.424,3.005 52.896,1.631 55.278,2.532 55.257,0 56.737,0 56.694,2.532 59.077,1.631 59.593,3.005 "/>
</svg>
