<?xml version="1.0" encoding="utf-8"?>
<!-- Generator: Adobe Illustrator 18.1.0, SVG Export Plug-In . SVG Version: 6.00 Build 0)  -->
<svg version="1.1" id="Layer_1" xmlns="http://www.w3.org/2000/svg" xmlns:xlink="http://www.w3.org/1999/xlink" x="0px" y="0px"
	 viewBox="0 0 120 120" enable-background="new 0 0 120 120" xml:space="preserve">
<g>
	<path fill="#F3F3F3" d="M47.9,82.4L35.7,89c-0.7,0.4-1.4,0.9-1.9,1.4c7.1,6,16.2,9.6,26.2,9.6c9.9,0,19-3.5,26.1-9.4
		c-0.6-0.5-1.4-1-2.1-1.4l-13-6.5c-1.7-0.8-2.7-2.6-2.7-4.4v-5.1c0.4-0.4,0.8-1,1.2-1.6c1.8-2.5,3.1-5.3,4-8.1
		c1.7-0.5,2.9-2.1,2.9-3.9V54c0-1.2-0.5-2.3-1.4-3v-7.9c0,0,1.6-12.2-15-12.2c-16.6,0-15,12.2-15,12.2V51c-0.8,0.7-1.4,1.8-1.4,3
		v5.4c0,1.4,0.8,2.7,1.9,3.4c1.4,5.9,4.9,10.2,4.9,10.2v5C50.4,79.9,49.4,81.5,47.9,82.4L47.9,82.4z M47.9,82.4"/>
	<path fill="#1197D4" d="M60.7,18.6c-22.5-0.4-41,17.5-41.4,40c-0.2,12.7,5.5,24.2,14.5,31.8c0.6-0.5,1.2-1,1.9-1.4l12.2-6.6
		c1.6-0.9,2.6-2.5,2.6-4.4v-5c0,0-3.6-4.3-4.9-10.2c-1.1-0.7-1.9-2-1.9-3.4V54c0-1.2,0.5-2.3,1.4-3v-7.9c0,0-1.6-12.3,15-12.3
		c16.6,0,15,12.3,15,12.3V51c0.8,0.7,1.4,1.8,1.4,3v5.5c0,1.8-1.2,3.4-2.9,3.9c-0.9,2.9-2.3,5.6-4,8.1c-0.5,0.6-0.9,1.2-1.2,1.6v5.1
		c0,1.9,1.1,3.6,2.7,4.4l13,6.5c0.8,0.4,1.5,0.9,2.1,1.4c8.8-7.3,14.4-18.2,14.6-30.6C101.1,37.5,83.1,19,60.7,18.6L60.7,18.6z
		 M60.7,18.6"/>
</g>
</svg>
