<?xml version="1.0" encoding="utf-8"?>
<!-- Generator: Adobe Illustrator 18.1.0, SVG Export Plug-In . SVG Version: 6.00 Build 0)  -->
<svg version="1.1" id="Layer_1" xmlns="http://www.w3.org/2000/svg" xmlns:xlink="http://www.w3.org/1999/xlink" x="0px" y="0px"
	 viewBox="0 0 120 120" enable-background="new 0 0 120 120" xml:space="preserve">
<g>
	<path fill="#808080" d="M95.2,56.1v38.4H25.3V56.1c0-2.4,2-4.4,4.4-4.4h61.1C93.2,51.7,95.2,53.7,95.2,56.1"/>
	<rect x="30.1" y="56.6" fill="#2AAAE2" width="60.2" height="33.2"/>
	<path fill="#A9A9A9" d="M90.8,51.7H53l1.2,3.9h30.2l0,0.5l0,0.4h5.9v33.2H64.5l1.4,4.4h29.3v-38C95.2,53.7,93.2,51.7,90.8,51.7"/>
	<path fill="#6FC6EB" d="M69.4,80.6h-7.7l0.2,0.6l3.6,0.6c0.2,0,0.4,0,0.6,0c0.6,0,1.2-0.1,1.7-0.4L69.4,80.6 M90.3,56.6h-5.9
		l0.8,24h-6l0,0l-11.6,7.3c-0.9,0.6-2,0.9-3.1,0.9c-0.1,0-0.2,0-0.4,0l0.3,0.9h25.8V56.6"/>
	<polyline fill="#676767" points="54.2,55.6 43.8,55.6 43.8,56.6 54.4,56.6 54.2,55.6 	"/>
	<path fill="#2D84AA" d="M54.4,56.6H43.8l-0.3,10L43,78.5c-0.2,0.2-0.4,0.3-0.7,0.4l-12.3,8v2.8h14l4-2.6c0.5-0.3,1-0.5,1.6-0.5
		c0.1,0,0.3,0,0.4,0l13.7,2.1c0.2,0,0.3,0,0.5,0.1L62,81.2l-3.8-0.6h3.6L54.4,56.6"/>
	<polyline fill="#838383" points="84.4,55.6 54.2,55.6 54.4,56.6 84.4,56.6 84.4,56.2 84.4,55.6 	"/>
	<path fill="#5C97B0" d="M84.4,56.6h-30l7.3,24h7.7l-1.6,0.9c-0.5,0.3-1.1,0.4-1.7,0.4c-0.2,0-0.4,0-0.6,0L62,81.2l2.3,7.6
		c0.1,0,0.2,0,0.4,0c1.1,0,2.1-0.3,3.1-0.9l11.6-7.3l0,0h6L84.4,56.6"/>
	<path fill="#F47A53" d="M85.3,76.7H43l0.5-14l1.2-34h39l0.8,23.6L85.3,76.7z M85.3,76.7"/>
	<path fill="#FCD18C" d="M79.3,78l-11.6,7.3c-1.2,0.7-2.6,1-3.9,0.8L50.1,84c-0.7-0.1-1.4,0.1-2,0.4l-8,5.3h-10v-5.5l12.3-8
		c1-0.6,1.9-1.3,2.7-2.1c0.8-0.8,1.5-1.7,2.2-2.7c1.1-1.7,3-2.8,5-2.7c0.5,0,0.9,0.1,1.4,0.1l12.2,2.4c1,0.2,1.6,1,1.6,2
		c0,0.2,0,0.3-0.1,0.5c-0.3,1-1.2,1.7-2.3,1.5L57.4,74c-0.1,0-0.2,0-0.3,0c-0.9,0-1.8,0.7-1.8,1.7c-0.1,1,0.6,1.8,1.5,2l8.8,1.5
		c0.8,0.1,1.6,0,2.3-0.4l9-4.9c0.4-0.2,0.8-0.3,1.2-0.3c0.8,0,1.6,0.4,2,1.1C80.7,75.8,80.4,77.2,79.3,78L79.3,78z M79.3,78"/>
	<path fill="#FFFFFF" d="M58.4,51.3c-2.1,0-3.7-1.7-3.7-3.7c0-2.1,1.7-3.7,3.7-3.7c2.1,0,3.7,1.7,3.7,3.7
		C62.1,49.6,60.4,51.3,58.4,51.3L58.4,51.3z M58.4,45.4c-1.2,0-2.2,1-2.2,2.2c0,1.2,1,2.2,2.2,2.2c1.2,0,2.2-1,2.2-2.2
		C60.5,46.4,59.5,45.4,58.4,45.4L58.4,45.4z M58.4,45.4"/>
	<path fill="#FFFFFF" d="M69.9,61.5c-2.1,0-3.7-1.7-3.7-3.7c0-2.1,1.7-3.7,3.7-3.7c2.1,0,3.7,1.7,3.7,3.7
		C73.6,59.8,72,61.5,69.9,61.5L69.9,61.5z M69.9,55.6c-1.2,0-2.2,1-2.2,2.2c0,1.2,1,2.2,2.2,2.2c1.2,0,2.2-1,2.2-2.2
		C72,56.5,71.1,55.6,69.9,55.6L69.9,55.6z M69.9,55.6"/>
	<path fill="#FFFFFF" d="M63.1,62.1l-1.6-0.3l3.7-18.7l1.6,0.3L63.1,62.1z M63.1,62.1"/>
	<path fill="#F9DE58" d="M73.9,35.6c-0.7,0-1.2-0.6-1.2-1.2v-4.5c0-4.7-3.7-8.6-8.3-8.7c-4.8-0.1-8.7,3.8-8.7,8.5v4.7
		c0,0.7-0.6,1.2-1.2,1.2c-0.7,0-1.2-0.6-1.2-1.2v-4.5c0-6,4.8-11.1,10.8-11.2c6.2-0.1,11.2,4.9,11.2,11v4.7
		C75.1,35,74.6,35.6,73.9,35.6L73.9,35.6z M73.9,35.6"/>
	<path fill="#4D4D4D" d="M100.2,94.2c0,3-2.5,5.5-5.5,5.5h-69c-1.5,0-2.9-0.6-3.9-1.6c-1-1-1.6-2.4-1.6-3.9H100.2"/>
	<path fill="#868686" d="M100.2,94.2H60.6l1.7,5.5h32.5C97.8,99.7,100.2,97.2,100.2,94.2"/>
</g>
</svg>
