<?xml version="1.0" encoding="utf-8"?>
<!-- Generator: Adobe Illustrator 18.1.0, SVG Export Plug-In . SVG Version: 6.00 Build 0)  -->
<svg version="1.1" id="Layer_1" xmlns="http://www.w3.org/2000/svg" xmlns:xlink="http://www.w3.org/1999/xlink" x="0px" y="0px"
	 viewBox="0 0 120 120" enable-background="new 0 0 120 120" xml:space="preserve">
<g>
	<path fill="#8DC63F" d="M56.9,74.1c2.6,2.6,4,2.7,6.7,0l19.7-20.1c1.8-3.1,0.3-5.6-3.4-5.6h-8.8V28.8c0-2.4-1.9-4.3-4.3-4.3h-13
		c-2.4,0-4.3,1.9-4.3,4.3v19.5h-8.8c-3.7,0-5.2,2.5-3.4,5.6L56.9,74.1z M90.6,82.9H30c-2.4,0-4.3,1.9-4.3,4.3v2.2
		c0,2.4,1.9,4.3,4.3,4.3h60.6c2.4,0,4.3-1.9,4.3-4.3v-2.2C94.9,84.8,92.9,82.9,90.6,82.9L90.6,82.9z M90.6,82.9"/>
</g>
</svg>
