<?xml version="1.0" encoding="utf-8"?>
<!-- Generator: Adobe Illustrator 16.0.0, SVG Export Plug-In . SVG Version: 6.00 Build 0)  -->
<!DOCTYPE svg PUBLIC "-//W3C//DTD SVG 1.1//EN" "http://www.w3.org/Graphics/SVG/1.1/DTD/svg11.dtd">
<svg version="1.1" id="Слой_1" xmlns="http://www.w3.org/2000/svg" xmlns:xlink="http://www.w3.org/1999/xlink" x="0px" y="0px"
	 width="27.422px" height="19.408px" viewBox="0 0 27.422 19.408" enable-background="new 0 0 27.422 19.408" xml:space="preserve">
<path fill="#FFFFFF" d="M27.268,6.006c-0.135-0.165-0.336-0.26-0.545-0.26h-2.672c-0.658-1.736-1.514-3.439-2.489-4.081
	c-3.373-2.221-12.326-2.221-15.699,0C4.889,2.307,4.032,4.01,3.371,5.746H0.703c-0.212,0-0.411,0.095-0.545,0.26
	C0.023,6.171-0.027,6.383,0.014,6.593l0.398,1.912c0.065,0.326,0.353,0.56,0.685,0.56h0.792c-0.764,0.882-1.135,1.992-1.138,3.1
	c-0.007,1.372,0.514,2.609,1.467,3.487c0.011,0.007,0.021,0.018,0.031,0.023v2.681c0,0.58,0.47,1.053,1.053,1.053h2.461
	c0.58,0,1.054-0.473,1.054-1.053v-1.076h13.792v1.076c0,0.58,0.472,1.053,1.054,1.053h2.461c0.58,0,1.053-0.473,1.053-1.053v-2.629
	c1.009-0.923,1.492-2.194,1.498-3.467c0.005-1.145-0.383-2.297-1.193-3.195h0.844c0.334,0,0.62-0.233,0.689-0.56l0.395-1.912
	C27.449,6.383,27.397,6.171,27.268,6.006 M7.021,3.424c2.688-1.768,10.693-1.768,13.378,0c0.524,0.343,1.197,1.729,1.812,3.426h-17
	C5.826,5.152,6.497,3.767,7.021,3.424 M3.871,12.428c0-1.142,0.929-2.07,2.071-2.07c1.145,0,2.074,0.929,2.074,2.07
	c0,1.146-0.929,2.074-2.074,2.074C4.799,14.502,3.871,13.573,3.871,12.428 M21.508,14.502c-1.143,0-2.071-0.929-2.071-2.074
	c0-1.142,0.929-2.07,2.071-2.07c1.145,0,2.074,0.929,2.074,2.07C23.582,13.573,22.652,14.502,21.508,14.502"/>
</svg>
