<?xml version="1.0" encoding="utf-8"?>
<!-- Generator: Adobe Illustrator 18.1.0, SVG Export Plug-In . SVG Version: 6.00 Build 0)  -->
<svg version="1.1" id="Layer_1" xmlns="http://www.w3.org/2000/svg" xmlns:xlink="http://www.w3.org/1999/xlink" x="0px" y="0px"
	 viewBox="0 0 120 120" enable-background="new 0 0 120 120" xml:space="preserve">
<g>
	<path fill="#76b72a" d="M96.3,88.5H23.6c-2.5,0-4.5-2-4.5-4.5V33.8c0-2.5,2-4.5,4.5-4.5h72.7c2.5,0,4.5,2,4.5,4.5v50.1
		C100.8,86.4,98.8,88.5,96.3,88.5"/>
	<rect x="81.1" y="72.3" fill="#FFFFFF" width="12.7" height="8.5"/>
	<path fill="#FFFFFF" d="M40.2,36.3H27.5c-0.8,0-1.4,0.6-1.4,1.4c0,0.8,0.6,1.4,1.4,1.4h12.7c0.8,0,1.4-0.6,1.4-1.4
		C41.6,36.9,41,36.3,40.2,36.3"/>
	<path fill="#FFFFFF" d="M59.9,37.7c0-0.8-0.6-1.4-1.4-1.4H45.8c-0.8,0-1.4,0.6-1.4,1.4c0,0.8,0.6,1.4,1.4,1.4h12.7
		C59.3,39.1,59.9,38.5,59.9,37.7"/>
	<path fill="#FFFFFF" d="M28.9,43.3h-1.4c-0.8,0-1.4,0.6-1.4,1.4c0,0.8,0.6,1.4,1.4,1.4h1.4c0.8,0,1.4-0.6,1.4-1.4
		C30.3,44,29.7,43.3,28.9,43.3"/>
	<path fill="#FFFFFF" d="M37.4,43.3h-2.8c-0.8,0-1.4,0.6-1.4,1.4c0,0.8,0.6,1.4,1.4,1.4h2.8c0.8,0,1.4-0.6,1.4-1.4
		C38.8,44,38.2,43.3,37.4,43.3"/>
	<path fill="#FFFFFF" d="M44.4,43.3H43c-0.8,0-1.4,0.6-1.4,1.4c0,0.8,0.6,1.4,1.4,1.4h1.4c0.8,0,1.4-0.6,1.4-1.4
		C45.8,44,45.2,43.3,44.4,43.3"/>
	<path fill="#FFFFFF" d="M52.9,43.3h-2.8c-0.8,0-1.4,0.6-1.4,1.4c0,0.8,0.6,1.4,1.4,1.4h2.8c0.8,0,1.4-0.6,1.4-1.4
		C54.3,44,53.7,43.3,52.9,43.3"/>
	<path fill="#FFFFFF" d="M57.5,43.7c-0.3,0.3-0.4,0.6-0.4,1c0,0.4,0.2,0.7,0.4,1c0.3,0.3,0.6,0.4,1,0.4c0.4,0,0.7-0.2,1-0.4
		c0.3-0.3,0.4-0.6,0.4-1c0-0.4-0.2-0.7-0.4-1C59,43.2,58,43.2,57.5,43.7"/>
</g>
</svg>
