<?xml version="1.0" encoding="utf-8"?>
<!-- Generator: Adobe Illustrator 16.0.0, SVG Export Plug-In . SVG Version: 6.00 Build 0)  -->
<!DOCTYPE svg PUBLIC "-//W3C//DTD SVG 1.1//EN" "http://www.w3.org/Graphics/SVG/1.1/DTD/svg11.dtd">
<svg version="1.1" id="Слой_1" xmlns="http://www.w3.org/2000/svg" xmlns:xlink="http://www.w3.org/1999/xlink" x="0px" y="0px"
	 width="45.753px" height="29.133px" viewBox="0 0 45.753 29.133" enable-background="new 0 0 45.753 29.133" xml:space="preserve">
<path fill="#FFFFFF" d="M24.399,10.936c-0.526-5.347-2.536-9.926-2.621-10.118c-0.187-0.42-0.571-0.72-1.025-0.798
	c-0.453-0.078-0.915,0.076-1.232,0.409c-2.851,3.008-5.456,4.755-8.196,5.499c-2.74,0.743-5.768,0.53-9.531-0.671
	C1.351,5.115,0.864,5.208,0.503,5.503C0.143,5.799-0.043,6.258,0.009,6.722c0.024,0.209,0.604,5.176,2.851,10.057
	c3.122,6.778,7.925,10.043,13.89,9.441c0.075-0.008,0.149-0.021,0.222-0.041c0.073-0.02,0.144-0.045,0.212-0.077
	C22.636,23.606,25.131,18.362,24.399,10.936 M4.07,12.118c-0.082-1.12,1.338-2.136,3.172-2.271c1.834-0.135,3.387,0.663,3.47,1.782
	c0.082,1.12-1.384,1.509-3.218,1.644S4.151,13.237,4.07,12.118 M15.787,21.812c-3.388,0.919-6.557,0.107-7.077-1.814
	c-0.038-0.137-0.059-0.275-0.068-0.416c1.655,0.701,4.064,0.797,6.572,0.117c2.508-0.682,4.539-1.98,5.612-3.422
	c0.064,0.125,0.116,0.256,0.153,0.393C21.5,18.591,19.176,20.893,15.787,21.812 M18.629,10.252c-1.651,0.81-3.113,1.214-3.607,0.207
	c-0.495-1.008,0.442-2.481,2.093-3.291c1.651-0.811,3.39-0.651,3.884,0.357C21.495,8.534,20.28,9.442,18.629,10.252"/>
<path fill="#FFFFFF" d="M45.502,12.402c-0.266-0.376-0.701-0.594-1.162-0.582c-4.143,0.109-7.219-0.497-9.682-1.91
	s-4.453-3.705-6.264-7.215c-0.215-0.415-0.624-0.693-1.088-0.739c-0.465-0.045-0.92,0.147-1.211,0.512
	c-0.062,0.076-0.771,0.973-1.7,2.421c0.344,1.213,0.679,2.607,0.93,4.1c0.808-0.637,2.382-0.312,3.673,0.804
	c1.393,1.201,1.926,2.864,1.192,3.714c-0.733,0.849-2.045,0.088-3.437-1.114c-0.431-0.371-0.816-0.74-1.125-1.099
	c0.287,3.066,0.064,5.829-0.662,8.247c1.133,0.143,2.391,0.564,3.613,1.264c3.045,1.748,4.709,4.564,3.719,6.289
	c-0.069,0.123-0.153,0.236-0.246,0.343c-0.674-1.666-2.311-3.437-4.564-4.729c-1.07-0.615-2.162-1.051-3.205-1.316
	c-0.051,0.115-0.102,0.229-0.156,0.34c-0.65,1.367-1.486,2.582-2.5,3.639c0.67,0.992,1.508,1.902,2.511,2.723
	c0.06,0.049,0.121,0.092,0.187,0.129c0.066,0.037,0.134,0.068,0.205,0.096c5.618,2.092,11.091,0.15,15.827-5.617
	c3.41-4.152,5.229-8.811,5.305-9.007C45.826,13.262,45.767,12.779,45.502,12.402 M40.366,17.882
	c-0.362,1.063-1.864,0.847-3.604,0.252c-1.739-0.596-3.059-1.342-2.696-2.404c0.362-1.063,2.067-1.441,3.808-0.847
	C39.613,15.478,40.729,16.821,40.366,17.882"/>
</svg>
