<?xml version="1.0" encoding="utf-8"?>
<!-- Generator: Adobe Illustrator 18.1.0, SVG Export Plug-In . SVG Version: 6.00 Build 0)  -->
<svg version="1.1" id="Layer_1" xmlns="http://www.w3.org/2000/svg" xmlns:xlink="http://www.w3.org/1999/xlink" x="0px" y="0px"
	 viewBox="0 0 120 120" enable-background="new 0 0 120 120" xml:space="preserve">
<g>
	<path fill="#F4F0D4" d="M83.9,92.4c3.6,1.6,13.6,6.1,17.2,7.6c0.4,0.2,1.3,0.1,1.2-0.7c-0.8-8.6-5.6-57.6-6.5-66.3
		c-0.1-1.3-0.5-1.4-1.4-1.8c-2.8-1.1-9.7-3.5-12.5-4.5c-1-0.4-1.6-0.4-2.6,0c-4.4,1.3-18.4,5.5-18.4,5.5s-14.5-4.4-19.1-5.7
		c-1-0.3-1.5-0.4-2.6,0.1c-2.9,0.9-9.6,3.4-12.5,4.5c-1.2,0.5-1.3,1-1.4,1.8C24.2,41.3,19,90.6,18,99.2c-0.1,1,0.8,0.9,1.6,0.7
		c3.9-1.6,14-5.9,17.5-7.4c0.7-0.3,1.4-0.5,2.6,0c4,1.6,15.8,7,19.7,8.6c0.9,0.4,1.6,0.5,2.6,0c3.9-1.6,15.3-6.9,19.1-8.6
		C81.9,92,83,92,83.9,92.4L83.9,92.4z M83.9,92.4"/>
	<path fill="#E7E3C8" d="M40.9,26.3c-0.5-0.1-1.1,0-1.8,0.3c-2.9,0.9-9.6,3.4-12.5,4.5c-1.2,0.5-1.3,1-1.4,1.8
		C24.2,41.3,19,90.6,18,99.2c-0.1,1,0.8,0.9,1.6,0.7c3.9-1.6,14-5.9,17.5-7.4c0.5-0.2,1-0.4,1.7-0.3L40.9,26.3L40.9,26.3z
		 M80.2,26.3c-0.3,0.1-0.5,0.1-0.9,0.3c-4.4,1.3-17.8,5.4-18.4,5.6v69.1c0.4,0,0.9-0.1,1.3-0.3c3.9-1.6,15.3-6.9,19.1-8.6
		c0.3-0.1,0.6-0.2,0.9-0.3L80.2,26.3L80.2,26.3z M80.2,26.3"/>
	<path fill="#EEC75E" d="M48.8,96.4l11.5-11.5L72,96.6c2.4-1.1,4.8-2.2,6.7-3.1l-42.1-42l20.4-20.4c-2.1-0.7-4.9-1.4-7.5-2.2
		L31.8,46.6l-7.3-7.3c-0.3,2.5-0.6,5.5-0.9,8.9L55.4,80L42.1,93.4C43.9,94.2,46.3,95.3,48.8,96.4L48.8,96.4z M48.8,96.4"/>
	<path fill="#E3BD5A" d="M40.2,47.9l0.3-10.1l-8.8,8.7l-7.3-7.2c-0.3,2.5-0.6,5.5-0.9,8.9l16.2,16.2l0.3-9.5l-3.3-3.3L40.2,47.9z
		 M60.8,85.4l11.1,11.1c2.4-1.1,4.8-2.2,6.7-3.1L60.8,75.6V85.4z M60.8,85.4"/>
	<path fill="#E2584C" d="M70.7,17.1c10.5,0,19.1,8.6,19.1,19.2c0,0.2-0.1,5.1-1.7,8.6c-3.9,9-13.2,18.6-16.3,21.7
		c-0.8,0.7-1.1,0.9-2.1-0.1C66.5,63.3,57.3,53.9,53.4,45c-1.4-2.6-1.8-8.3-1.8-8.8C51.6,25.6,60.2,17.1,70.7,17.1L70.7,17.1z
		 M70.7,17.1"/>
	<path fill="#FFFFFF" d="M70.7,26.3c-5.5,0-9.9,4.4-9.9,9.9c0,5.5,4.4,9.9,9.9,9.9c5.5,0,9.9-4.4,9.9-9.9
		C80.6,30.7,76.2,26.3,70.7,26.3L70.7,26.3z M70.7,42.1c-3.3,0-5.9-2.6-5.9-5.9c0-3.3,2.6-5.9,5.9-5.9s5.9,2.6,5.9,5.9
		C76.6,39.4,74,42.1,70.7,42.1L70.7,42.1z M70.7,42.1"/>
</g>
</svg>
