<?xml version="1.0" encoding="utf-8"?>
<!-- Generator: Adobe Illustrator 16.0.0, SVG Export Plug-In . SVG Version: 6.00 Build 0)  -->
<!DOCTYPE svg PUBLIC "-//W3C//DTD SVG 1.1//EN" "http://www.w3.org/Graphics/SVG/1.1/DTD/svg11.dtd">
<svg version="1.1" id="Слой_1" xmlns="http://www.w3.org/2000/svg" xmlns:xlink="http://www.w3.org/1999/xlink" x="0px" y="0px"
	 width="28.955px" height="19.408px" viewBox="0 0 28.955 19.408" enable-background="new 0 0 28.955 19.408" xml:space="preserve">
<path fill="#FFFFFF" d="M22.484,5.951c-0.053,0-0.104,0.008-0.154,0.01l-0.881-5.146c-0.049-0.277-0.213-0.52-0.451-0.67
	c-0.24-0.146-0.531-0.184-0.801-0.104l-2.65,0.803c-0.52,0.158-0.813,0.705-0.654,1.225c0.158,0.518,0.707,0.813,1.223,0.654
	l1.586-0.48l0.363,2.119H11.72V3.943l1.025-0.258c0.408-0.104,0.697-0.484,0.674-0.918c-0.027-0.494-0.449-0.871-0.943-0.842
	L8.687,2.141C8.613,2.145,8.529,2.156,8.451,2.176c-0.672,0.17-1.08,0.854-0.91,1.527s0.854,1.08,1.527,0.91l0.688-0.174v0.637
	L8.951,6.467c-0.764-0.33-1.602-0.516-2.479-0.516C2.904,5.951,0,8.971,0,12.68c0,3.711,2.904,6.729,6.472,6.729
	c3.246,0,5.936-2.502,6.395-5.748h1.047c0.277,0,0.545-0.117,0.73-0.326l1.439-1.607c-0.043,0.313-0.072,0.629-0.072,0.953
	c0,3.711,2.904,6.729,6.473,6.729c3.566,0,6.471-3.018,6.471-6.729C28.955,8.971,26.05,5.951,22.484,5.951 M6.472,17.445
	c-2.486,0-4.509-2.139-4.509-4.766s2.023-4.764,4.509-4.764c0.518,0,1.008,0.109,1.473,0.281l-2.321,3.99
	c-0.176,0.303-0.178,0.678-0.002,0.982c0.174,0.303,0.499,0.49,0.85,0.49h4.41C10.453,15.818,8.64,17.445,6.472,17.445
	 M10.882,11.697H8.179l1.418-2.439C10.234,9.908,10.693,10.75,10.882,11.697 M13.474,11.697h-0.607
	c-0.236-1.672-1.061-3.146-2.254-4.184l0.691-1.191h6.98L13.474,11.697z M22.484,17.445c-2.486,0-4.51-2.139-4.51-4.766
	c0-1.973,1.139-3.67,2.762-4.393l0.779,4.559c0.084,0.479,0.498,0.814,0.967,0.814c0.057,0,0.111-0.004,0.166-0.014
	c0.535-0.09,0.895-0.598,0.803-1.133l-0.783-4.578c2.398,0.104,4.322,2.184,4.322,4.744C26.99,15.307,24.968,17.445,22.484,17.445"
	/>
</svg>
