<?xml version="1.0" encoding="utf-8"?>
<!-- Generator: Adobe Illustrator 16.0.0, SVG Export Plug-In . SVG Version: 6.00 Build 0)  -->
<!DOCTYPE svg PUBLIC "-//W3C//DTD SVG 1.1//EN" "http://www.w3.org/Graphics/SVG/1.1/DTD/svg11.dtd">
<svg version="1.1" id="Слой_1" xmlns="http://www.w3.org/2000/svg" xmlns:xlink="http://www.w3.org/1999/xlink" x="0px" y="0px"
	 width="83.486px" height="100.209px" viewBox="0 0 83.486 100.209" enable-background="new 0 0 83.486 100.209"
	 xml:space="preserve">
<rect x="28.243" y="98.209" fill="#78B05E" width="27" height="2"/>
<g>
	<path fill="#78B05E" d="M27.799,57.472c-2.907,0-5.183,2.293-5.183,5.2c0,2.925,2.275,5.199,5.183,5.199
		c2.908,0,5.2-2.274,5.183-5.199C32.982,59.746,30.708,57.472,27.799,57.472L27.799,57.472z M27.799,64.468
		c-1.028,0-1.791-0.8-1.761-1.837c0.026-0.924,0.824-1.715,1.748-1.721c1.016-0.007,1.775,0.766,1.775,1.779
		C29.562,63.698,28.809,64.468,27.799,64.468L27.799,64.468z M27.799,64.468"/>
	<path fill="#78B05E" d="M55.646,57.472c-2.908,0-5.183,2.293-5.183,5.2c0,2.925,2.274,5.199,5.183,5.199
		c2.907,0,5.183-2.274,5.183-5.199C60.829,59.746,58.554,57.472,55.646,57.472L55.646,57.472z M55.646,64.468
		c-1.028,0-1.79-0.799-1.761-1.835c0.025-0.925,0.821-1.716,1.746-1.723c1.017-0.008,1.776,0.765,1.776,1.779
		C57.408,63.698,56.655,64.468,55.646,64.468L55.646,64.468z M55.646,64.468"/>
	<path fill="#78B05E" d="M60.796,15.702H22.515c-3.78,0-6.859,3.147-6.859,6.996v45.26c0,3.729,3.147,6.859,6.859,6.859h2.275
		l-3.61,6.054c-0.479,0.805-0.222,1.865,0.599,2.344c0.274,0.172,0.581,0.24,0.873,0.24c0.582,0,1.146-0.291,1.471-0.839
		l4.652-7.799h25.897l4.653,7.799c0.324,0.53,0.889,0.839,1.471,0.839c0.29,0,0.599-0.086,0.873-0.24
		c0.803-0.479,1.076-1.539,0.598-2.344l-3.609-6.054h2.139c3.865,0,6.995-3.079,6.995-6.859V22.715
		C67.791,18.85,64.661,15.702,60.796,15.702L60.796,15.702z M57.118,19.123L53.491,41.89H29.853l-3.541-22.767H57.118z
		 M52.944,45.312l-0.564,3.54H30.947l-0.547-3.54H52.944z M64.37,67.976c0,1.864-1.643,3.438-3.574,3.438H22.515
		c-1.891,0-3.438-1.548-3.438-3.438v-45.26c0-1.949,1.573-3.575,3.438-3.575h0.341l4.927,31.696
		c0.136,0.838,0.855,1.453,1.693,1.453h24.358c0.838,0,1.556-0.615,1.692-1.437l5.064-31.712h0.205c1.966,0,3.574,1.609,3.574,3.575
		V67.976z M64.37,67.976"/>
	<path fill="#78B05E" d="M83.323,38.161c-0.924-10.417-5.697-20.064-13.41-27.163C62.25,3.917,52.261,0,41.792,0
		C31.307,0,21.301,3.899,13.569,10.998S1.082,27.744,0.158,38.178c-0.906,10.434,2.104,20.749,8.485,29.027
		c0.564,0.753,1.642,0.889,2.395,0.309c0.752-0.564,0.89-1.644,0.308-2.396C-0.867,49.279,1.082,27.094,15.878,13.512
		c14.573-13.375,37.271-13.375,51.708,0c14.777,13.599,16.729,35.784,4.532,51.606c-0.582,0.735-0.445,1.813,0.308,2.396
		c0.309,0.238,0.685,0.358,1.044,0.358c0.513,0,1.009-0.223,1.368-0.685C81.236,58.909,84.247,48.595,83.323,38.161L83.323,38.161z
		 M83.323,38.161"/>
	<path fill="#78B05E" d="M38.251,12.161c1.125,0,2.007-1.103,1.617-2.28c-0.235-0.708-0.956-1.141-1.702-1.141h-4.979
		c-0.746,0-1.467,0.433-1.702,1.141c-0.39,1.178,0.491,2.28,1.617,2.28H38.251z M38.251,12.161"/>
	<path fill="#78B05E" d="M50.36,12.161c1.127,0,2.006-1.103,1.617-2.28c-0.234-0.708-0.955-1.141-1.701-1.141h-4.979
		c-0.746,0-1.468,0.433-1.702,1.141c-0.39,1.178,0.491,2.28,1.616,2.28H50.36z M50.36,12.161"/>
</g>
</svg>
