<?xml version="1.0" encoding="utf-8"?>
<!-- Generator: Adobe Illustrator 16.0.0, SVG Export Plug-In . SVG Version: 6.00 Build 0)  -->
<!DOCTYPE svg PUBLIC "-//W3C//DTD SVG 1.1//EN" "http://www.w3.org/Graphics/SVG/1.1/DTD/svg11.dtd">
<svg version="1.1" id="Слой_1" xmlns="http://www.w3.org/2000/svg" xmlns:xlink="http://www.w3.org/1999/xlink" x="0px" y="0px"
	 width="83.487px" height="100.209px" viewBox="0 0 83.487 100.209" enable-background="new 0 0 83.487 100.209"
	 xml:space="preserve">
<rect x="28.207" y="98.209" fill="#78B05E" width="27" height="2"/>
<g>
	<rect x="17.089" y="35.114" fill="#78B05E" width="48.566" height="1.822"/>
	<path fill="#78B05E" d="M71.238,34.537L41.374,19.123L11.509,34.537v6.136h59.729V34.537z M43.264,29.488
		c0,1.043-0.848,1.891-1.891,1.891s-1.891-0.848-1.891-1.891c0-1.042,0.849-1.891,1.891-1.891S43.264,28.446,43.264,29.488
		L43.264,29.488z M69.416,38.851H13.332v-1.913h1.891v-1.822h-0.86l26.099-13.471v4.245c-1.608,0.407-2.802,1.866-2.802,3.599
		c0,2.048,1.666,3.713,3.713,3.713c2.047,0,3.713-1.666,3.713-3.713c0-1.733-1.194-3.192-2.802-3.599v-4.245l26.099,13.471h-0.858
		v1.822h1.891V38.851z M69.416,38.851"/>
	<rect x="13.354" y="66.869" fill="#78B05E" width="56.039" height="1.823"/>
	<rect x="11.486" y="69.672" fill="#78B05E" width="59.775" height="1.822"/>
	<path fill="#78B05E" d="M14.288,64.067v1.823h7.472v-1.823h-0.957V43.476h0.957v-1.823h-7.472v1.823h0.957v20.592H14.288z
		 M17.067,43.476h1.914v20.592h-1.914V43.476z M17.067,43.476"/>
	<path fill="#78B05E" d="M23.628,64.067v1.823H31.1v-1.823h-0.957V43.476H31.1v-1.823h-7.472v1.823h0.957v20.592H23.628z
		 M26.407,43.476h1.914v20.592h-1.914V43.476z M26.407,43.476"/>
	<path fill="#78B05E" d="M32.967,64.067v1.823h7.472v-1.823h-0.957V43.476h0.957v-1.823h-7.472v1.823h0.958v20.592H32.967z
		 M35.747,43.476h1.914v20.592h-1.914V43.476z M35.747,43.476"/>
	<path fill="#78B05E" d="M49.779,43.476v-1.823h-7.472v1.823h0.957v20.592h-0.957v1.823h7.472v-1.823h-0.956V43.476H49.779z
		 M47,64.067h-1.913V43.476H47V64.067z M47,64.067"/>
	<path fill="#78B05E" d="M51.647,64.067v1.823h7.472v-1.823h-0.957V43.476h0.957v-1.823h-7.472v1.823h0.957v20.592H51.647z
		 M54.426,43.476h1.913v20.592h-1.913V43.476z M54.426,43.476"/>
	<path fill="#78B05E" d="M60.987,64.067v1.823h7.472v-1.823h-0.957V43.476h0.957v-1.823h-7.472v1.823h0.957v20.592H60.987z
		 M63.765,43.476h1.914v20.592h-1.914V43.476z M63.765,43.476"/>
</g>
<path fill="#78B05E" d="M83.323,38.161c-0.924-10.417-5.696-20.064-13.41-27.163C62.25,3.917,52.261,0,41.792,0
	C31.307,0,21.301,3.899,13.569,10.998S1.082,27.744,0.158,38.178c-0.906,10.434,2.104,20.749,8.485,29.027
	c0.564,0.753,1.642,0.889,2.395,0.309c0.753-0.564,0.89-1.644,0.308-2.396C-0.867,49.279,1.082,27.094,15.878,13.512
	c14.574-13.375,37.271-13.375,51.708,0c14.778,13.599,16.729,35.784,4.533,51.606c-0.583,0.735-0.445,1.813,0.307,2.396
	c0.309,0.238,0.686,0.358,1.044,0.358c0.514,0,1.01-0.223,1.368-0.685C81.236,58.909,84.247,48.595,83.323,38.161L83.323,38.161z
	 M83.323,38.161"/>
</svg>
