<?xml version="1.0" encoding="utf-8"?>
<!-- Generator: Adobe Illustrator 16.0.0, SVG Export Plug-In . SVG Version: 6.00 Build 0)  -->
<!DOCTYPE svg PUBLIC "-//W3C//DTD SVG 1.1//EN" "http://www.w3.org/Graphics/SVG/1.1/DTD/svg11.dtd">
<svg version="1.1" id="Слой_1" xmlns="http://www.w3.org/2000/svg" xmlns:xlink="http://www.w3.org/1999/xlink" x="0px" y="0px"
	 width="83.485px" height="100.209px" viewBox="0 0 83.485 100.209" enable-background="new 0 0 83.485 100.209"
	 xml:space="preserve">
<g>
	<path fill="#78B05E" d="M38.17,35.588c0,5.724-2.356,8.838-6.775,8.838c-4.461,0-6.775-2.904-6.775-8.501
		c0-5.345,2.482-8.374,6.943-8.374C35.855,27.551,38.17,30.37,38.17,35.588z M27.775,36.135c0,3.956,1.22,5.892,3.619,5.892
		c3.24,0,3.619-3.788,3.619-6.27c0-3.872-1.179-5.766-3.619-5.766C28.995,29.991,27.775,32.053,27.775,36.135z M34.509,58.902
		h-2.862l16.876-32.194H51.3L34.509,58.902z M59.128,49.266c0,5.723-2.357,8.838-6.775,8.838c-4.461,0-6.776-2.904-6.776-8.501
		c0-5.345,2.483-8.375,6.944-8.375C56.813,41.228,59.128,44.047,59.128,49.266z M48.732,49.813c0,3.956,1.221,5.892,3.62,5.892
		c3.24,0,3.619-3.788,3.619-6.271c0-3.872-1.179-5.766-3.619-5.766C49.953,43.668,48.732,45.73,48.732,49.813z"/>
</g>
<rect x="28.243" y="98.209" fill="#78B05E" width="27" height="2"/>
<path fill="#78B05E" d="M83.322,38.161c-0.924-10.417-5.695-20.064-13.41-27.163C62.25,3.917,52.261,0,41.792,0
	C31.308,0,21.301,3.899,13.569,10.998S1.082,27.744,0.158,38.178c-0.906,10.434,2.104,20.749,8.485,29.027
	c0.563,0.753,1.642,0.889,2.395,0.309c0.752-0.564,0.889-1.644,0.307-2.396C-0.867,49.279,1.082,27.094,15.879,13.512
	c14.573-13.375,37.271-13.375,51.708,0c14.777,13.599,16.728,35.784,4.532,51.606c-0.582,0.735-0.445,1.813,0.308,2.396
	c0.309,0.238,0.685,0.358,1.044,0.358c0.513,0,1.009-0.223,1.368-0.685C81.236,58.909,84.246,48.595,83.322,38.161L83.322,38.161z
	 M83.322,38.161"/>
<rect x="17.164" y="69.672" fill="#78B05E" width="51.159" height="1.822"/>
</svg>
