<?xml version="1.0" encoding="utf-8"?>
<!-- Generator: Adobe Illustrator 16.0.0, SVG Export Plug-In . SVG Version: 6.00 Build 0)  -->
<!DOCTYPE svg PUBLIC "-//W3C//DTD SVG 1.1//EN" "http://www.w3.org/Graphics/SVG/1.1/DTD/svg11.dtd">
<svg version="1.1" id="Слой_1" xmlns="http://www.w3.org/2000/svg" xmlns:xlink="http://www.w3.org/1999/xlink" x="0px" y="0px"
	 width="204.711px" height="129.087px" viewBox="0 0 204.711 129.087" enable-background="new 0 0 204.711 129.087"
	 xml:space="preserve">
<path fill="#4798C9" d="M192.827,129.087H11.884C5.321,129.087,0,123.766,0,117.203V11.884C0,5.321,5.321,0,11.884,0h180.942
	c6.563,0,11.885,5.321,11.885,11.884v105.319C204.711,123.766,199.39,129.087,192.827,129.087"/>
<path fill="#FFFFFF" d="M81.612,14.109c-2.854-1.601-7.007,1.345-9.306,1.359c-2.299,0.015-6.489-2.879-9.322-1.243
	c-3.538,2.043-0.975,11.449,3.412,16.168c2.189,2.354,4.261,3.17,6.02,3.2c1.759-0.052,3.819-0.893,5.98-3.274
	C82.725,25.545,85.174,16.108,81.612,14.109"/>
<path fill="#FFFFFF" d="M59.688,15.735c-1.203-1.091-3.112-2.756-3.625-3.941c-0.208-0.478-0.779-0.514-0.991-0.019
	c-0.504,1.173-2.504,2.862-3.715,3.96c-1.743,1.577-6.963,3.995-6.963,9.865c0,4.031,1.914,6.182,3.808,7.173
	c0.849,0.444,2.859,1.13,7.151,1.13s6.646-0.686,7.496-1.132c1.892-0.992,3.801-3.145,3.801-7.171
	C66.65,19.73,61.428,17.313,59.688,15.735"/>
<path fill="#FFFFFF" d="M31.184,24.61c0-7.576-9.004-12.175-9.798-12.381v-0.004c-0.001,0.002-0.003,0.002-0.003,0.002
	s-0.004,0-0.004-0.002v0.004c-0.794,0.206-9.798,4.805-9.798,12.381c0,5.42,4.381,9.816,9.798,9.842h0.003h0.004
	C26.802,34.427,31.184,30.031,31.184,24.61"/>
<path fill="#FFFFFF" d="M50.49,27.329c-0.961-0.581-2.271-1.425-2.088-2.531c0.188-1.142,1.581-1.698,2.683-2.039
	c0.245-0.076,0.205-0.392-0.042-0.419c-1.202-0.129-2.833-0.577-3.079-1.633c-0.273-1.176,0.619-2.346,1.505-3.156
	c0.188-0.173,0.02-0.442-0.215-0.361c-1.127,0.389-2.858,0.492-3.639-0.39c-0.623-0.703-0.305-2.173,0.158-3.308
	c0.098-0.238-0.171-0.409-0.348-0.233c-0.864,0.845-1.98,1.752-3.228,1.333c-1.171-0.449-1.45-1.953-1.521-3.177
	c-0.015-0.255-0.331-0.295-0.416-0.061c-0.408,1.121-1.104,2.737-2.686,2.621c-1.157-0.088-2.081-1.124-2.679-2.15
	c-0.13-0.221-0.427-0.112-0.397,0.135c0.138,1.165,0.178,3.03-1.177,3.491c-1.039,0.354-2.364-0.04-3.388-0.713
	c-0.215-0.142-0.433,0.09-0.297,0.297c0.664,1.012,1.346,2.42,0.689,3.425c-0.479,0.734-2.2,1.047-3.413,0.88
	c-0.254-0.034-0.353,0.269-0.141,0.396c0.963,0.583,2.141,1.841,2.058,2.598c-0.123,1.141-1.548,1.631-2.65,1.974
	c-0.246,0.076-0.206,0.391,0.04,0.417c1.204,0.13,2.836,0.577,3.079,1.634c0.274,1.178-0.617,2.347-1.502,3.155
	c-0.19,0.172-0.021,0.442,0.214,0.36c1.127-0.388,2.858-0.492,3.637,0.39c0.625,0.704,0.306,2.174-0.156,3.308
	c-0.099,0.238,0.17,0.409,0.347,0.236c0.865-0.848,1.979-1.753,3.229-1.337c1.172,0.452,1.449,1.954,1.521,3.18
	c0.015,0.254,0.332,0.293,0.416,0.058c0.409-1.122,1.104-2.736,2.688-2.617c1.155,0.085,2.08,1.121,2.678,2.146
	c0.129,0.224,0.427,0.113,0.397-0.133c-0.139-1.165-0.178-3.031,1.177-3.492c1.039-0.352,2.363,0.042,3.389,0.714
	c0.214,0.141,0.432-0.09,0.296-0.296c-0.665-1.012-1.347-2.42-0.69-3.426c0.479-0.732,2.198-1.047,3.413-0.879
	C50.604,27.76,50.702,27.458,50.49,27.329"/>
<path fill="#4798C9" d="M56.716,27.367l-0.003-7.195c0-0.014-0.001-0.029-0.003-0.044C56.675,19.499,56.156,19,55.518,19
	c-0.643,0-1.165,0.507-1.193,1.142c-0.002,0.013-0.003,0.026-0.003,0.038v7.187c0,0.01,0,0.021,0.001,0.032
	c0.018,0.646,0.545,1.165,1.195,1.165c0.649,0,1.18-0.518,1.196-1.164C56.715,27.389,56.716,27.376,56.716,27.367"/>
<path fill="#4798C9" d="M24.568,26.734c-0.09-0.124-2.096-2.874-2.096-2.874c-0.019-0.027-0.044-0.05-0.071-0.069l-0.432-0.212
	v-0.094l0.406-0.199c0.029-0.019,0.054-0.044,0.074-0.072c0,0,1.699-2.429,1.798-2.572c0.1-0.143,0.141-0.341,0.141-0.535
	c0-0.618-0.496-1.116-1.109-1.113c-0.399,0.002-0.746,0.218-0.941,0.538l-2.178,3.224c0,0,0.001-2.554,0.001-2.561
	c0-0.66-0.535-1.196-1.196-1.196c-0.661,0-1.196,0.536-1.196,1.196c0,0.007,0.004,6.673,0.004,7.258c0,0.585,0.56,1.11,1.192,1.11
	c0.638,0,1.193-0.536,1.193-1.129c0-0.594,0.002-2.73,0.002-2.73h0.039c0,0,2.205,3.094,2.404,3.355
	c0.198,0.262,0.597,0.489,0.967,0.489c0.656,0,1.188-0.531,1.188-1.187C24.756,27.16,24.738,26.967,24.568,26.734"/>
<path fill="#4798C9" d="M42.229,20.132c0-0.626-0.507-1.134-1.134-1.134c-0.44,0-0.822,0.253-1.009,0.62
	c-0.006,0.01-0.013,0.02-0.017,0.029l-1.146,2.388c-0.008,0.017-0.014,0.034-0.02,0.052l-0.154,0.589h-0.102L38.5,22.09
	c-0.005-0.021-0.013-0.041-0.021-0.059l-1.191-2.363c-0.003-0.003-0.005-0.005-0.007-0.008c-0.203-0.393-0.613-0.662-1.088-0.662
	c-0.677,0-1.227,0.55-1.227,1.227c0,0.186,0.043,0.361,0.117,0.519c0.002,0.005,0.004,0.011,0.006,0.016l0.011,0.02
	c0.01,0.02,0.021,0.038,0.031,0.057l2.247,4.148v2.344c0,0.004,0.001,0.008,0.001,0.012c0,0.009-0.001,0.017-0.001,0.024
	c0,0.661,0.533,1.197,1.193,1.197c0.661,0,1.196-0.536,1.196-1.197c0-0.008-0.001-0.016-0.001-0.024
	c0-0.004,0.001-0.008,0.001-0.012l0.001-2.356l2.316-4.288c0.001-0.001,0.002-0.004,0.003-0.005
	C42.178,20.518,42.229,20.332,42.229,20.132"/>
<path fill="#4798C9" d="M76.304,20.143c0-0.642-0.521-1.163-1.163-1.163c-0.484,0-0.899,0.296-1.074,0.717
	c-0.005,0.01-0.009,0.021-0.012,0.031l-0.013,0.034c-0.005,0.016-0.011,0.032-0.016,0.048l-1.386,4.103
	c-0.004,0.011-0.008,0.024-0.01,0.036L72.49,24.66h-0.082l-0.138-0.723c-0.002-0.015-0.006-0.029-0.011-0.043l-1.402-4.004
	c-0.002-0.006-0.004-0.011-0.006-0.016l-0.011-0.033c-0.002-0.005-0.005-0.012-0.009-0.019c-0.187-0.489-0.657-0.839-1.204-0.839
	c-0.703,0-1.266,0.576-1.256,1.285c0.003,0.152,0.033,0.298,0.083,0.434c0.001,0.003,0.001,0.005,0.002,0.007l2.725,7.073
	c0.002,0.005,0.004,0.009,0.006,0.013c0.181,0.455,0.624,0.777,1.143,0.777c0.521,0,0.967-0.325,1.145-0.783
	c0.002-0.004,0.004-0.007,0.006-0.011l2.743-7.206c0.002-0.005,0.002-0.01,0.004-0.015C76.276,20.428,76.304,20.289,76.304,20.143"
	/>
<path fill="#4798C9" d="M21.163,44.796c1.468,0,2.739,0.172,3.812,0.517c1.073,0.344,1.959,0.824,2.657,1.442
	c0.699,0.617,1.217,1.357,1.558,2.217c0.339,0.86,0.508,1.802,0.508,2.825c0,1.062-0.178,2.037-0.531,2.923
	c-0.355,0.886-0.886,1.646-1.594,2.285c-0.709,0.639-1.599,1.135-2.666,1.489c-1.068,0.354-2.316,0.531-3.743,0.531H18.11v7.73
	h-4.085V44.796H21.163z M21.163,55.836c0.749,0,1.402-0.093,1.959-0.281c0.557-0.187,1.02-0.456,1.39-0.805
	c0.369-0.349,0.646-0.774,0.827-1.275c0.183-0.501,0.273-1.061,0.273-1.678c0-0.587-0.091-1.118-0.273-1.595
	c-0.182-0.476-0.455-0.88-0.82-1.215c-0.365-0.333-0.825-0.589-1.381-0.767c-0.557-0.176-1.215-0.265-1.974-0.265H18.11v7.881
	H21.163z"/>
<path fill="none" stroke="#FFFFFF" stroke-miterlimit="10" d="M21.163,44.796c1.468,0,2.739,0.172,3.812,0.517
	c1.073,0.344,1.959,0.824,2.657,1.442c0.699,0.617,1.217,1.357,1.558,2.217c0.339,0.86,0.508,1.802,0.508,2.825
	c0,1.062-0.178,2.037-0.531,2.923c-0.355,0.886-0.886,1.646-1.594,2.285c-0.709,0.639-1.599,1.135-2.666,1.489
	c-1.068,0.354-2.316,0.531-3.743,0.531H18.11v7.73h-4.085V44.796H21.163z M21.163,55.836c0.749,0,1.402-0.093,1.959-0.281
	c0.557-0.187,1.02-0.456,1.39-0.805c0.369-0.349,0.646-0.774,0.827-1.275c0.183-0.501,0.273-1.061,0.273-1.678
	c0-0.587-0.091-1.118-0.273-1.595c-0.182-0.476-0.455-0.88-0.82-1.215c-0.365-0.333-0.825-0.589-1.381-0.767
	c-0.557-0.176-1.215-0.265-1.974-0.265H18.11v7.881H21.163z"/>
<path fill="#4798C9" d="M50.106,66.756h-3.158c-0.354,0-0.643-0.089-0.866-0.267c-0.223-0.177-0.39-0.397-0.501-0.66l-1.64-4.48
	h-9.096l-1.641,4.48c-0.081,0.232-0.237,0.445-0.471,0.638c-0.233,0.192-0.522,0.289-0.866,0.289h-3.188l8.641-21.959h4.161
	L50.106,66.756z M42.893,58.464L40.22,51.16c-0.131-0.324-0.269-0.709-0.41-1.155c-0.143-0.445-0.283-0.926-0.425-1.442
	c-0.132,0.516-0.269,1-0.41,1.45c-0.143,0.45-0.278,0.842-0.41,1.177l-2.657,7.274H42.893z"/>
<path fill="none" stroke="#FFFFFF" stroke-miterlimit="10" d="M50.106,66.756h-3.158c-0.354,0-0.643-0.089-0.866-0.267
	c-0.223-0.177-0.39-0.397-0.501-0.66l-1.64-4.48h-9.096l-1.641,4.48c-0.081,0.232-0.237,0.445-0.471,0.638
	c-0.233,0.192-0.522,0.289-0.866,0.289h-3.188l8.641-21.959h4.161L50.106,66.756z M42.893,58.464L40.22,51.16
	c-0.131-0.324-0.269-0.709-0.41-1.155c-0.143-0.445-0.283-0.926-0.425-1.442c-0.132,0.516-0.269,1-0.41,1.45
	c-0.143,0.45-0.278,0.842-0.41,1.177l-2.657,7.274H42.893z"/>
<path fill="#4798C9" d="M64.077,48.791c-0.122,0.213-0.25,0.367-0.388,0.463c-0.137,0.096-0.306,0.144-0.509,0.144
	c-0.213,0-0.442-0.078-0.69-0.235c-0.248-0.157-0.544-0.332-0.889-0.524c-0.344-0.192-0.747-0.367-1.207-0.524
	c-0.461-0.157-1.005-0.235-1.633-0.235c-0.566,0-1.063,0.068-1.488,0.205c-0.425,0.136-0.781,0.326-1.07,0.569
	c-0.288,0.243-0.503,0.534-0.646,0.874c-0.142,0.338-0.212,0.711-0.212,1.115c0,0.517,0.145,0.948,0.433,1.291
	c0.288,0.344,0.671,0.638,1.146,0.881c0.476,0.243,1.017,0.46,1.625,0.653c0.607,0.192,1.23,0.397,1.867,0.615
	c0.638,0.218,1.261,0.471,1.868,0.759c0.607,0.289,1.148,0.653,1.625,1.094c0.476,0.44,0.857,0.979,1.146,1.617
	c0.288,0.638,0.434,1.412,0.434,2.323c0,0.992-0.17,1.921-0.51,2.787c-0.34,0.865-0.836,1.62-1.488,2.263
	c-0.652,0.642-1.45,1.148-2.392,1.518c-0.941,0.369-2.02,0.555-3.234,0.555c-0.698,0-1.388-0.069-2.065-0.206
	c-0.678-0.136-1.329-0.332-1.952-0.585c-0.622-0.252-1.207-0.556-1.753-0.911c-0.547-0.354-1.033-0.749-1.458-1.184l1.199-1.959
	c0.101-0.141,0.233-0.26,0.395-0.357c0.162-0.096,0.334-0.144,0.518-0.144c0.253,0,0.526,0.104,0.819,0.311
	c0.294,0.207,0.644,0.438,1.048,0.691s0.879,0.484,1.42,0.691c0.542,0.208,1.192,0.312,1.952,0.312c1.164,0,2.064-0.276,2.702-0.828
	c0.639-0.552,0.956-1.344,0.956-2.377c0-0.577-0.144-1.047-0.432-1.412c-0.289-0.364-0.671-0.671-1.146-0.919
	c-0.477-0.248-1.018-0.458-1.625-0.63s-1.226-0.359-1.854-0.562c-0.627-0.202-1.244-0.445-1.852-0.728
	c-0.608-0.284-1.149-0.654-1.625-1.109c-0.477-0.456-0.858-1.025-1.147-1.709c-0.288-0.683-0.432-1.526-0.432-2.528
	c0-0.799,0.159-1.579,0.478-2.339c0.319-0.759,0.782-1.432,1.391-2.02c0.606-0.586,1.355-1.057,2.246-1.412
	c0.892-0.354,1.914-0.531,3.067-0.531c1.296,0,2.491,0.202,3.584,0.607c1.094,0.405,2.025,0.972,2.795,1.701L64.077,48.791z"/>
<path fill="none" stroke="#FFFFFF" stroke-miterlimit="10" d="M64.077,48.791c-0.122,0.213-0.25,0.367-0.388,0.463
	c-0.137,0.096-0.306,0.144-0.509,0.144c-0.213,0-0.442-0.078-0.69-0.235c-0.248-0.157-0.544-0.332-0.889-0.524
	c-0.344-0.192-0.747-0.367-1.207-0.524c-0.461-0.157-1.005-0.235-1.633-0.235c-0.566,0-1.063,0.068-1.488,0.205
	c-0.425,0.136-0.781,0.326-1.07,0.569c-0.288,0.243-0.503,0.534-0.646,0.874c-0.142,0.338-0.212,0.711-0.212,1.115
	c0,0.517,0.145,0.948,0.433,1.291c0.288,0.344,0.671,0.638,1.146,0.881c0.476,0.243,1.017,0.46,1.625,0.653
	c0.607,0.192,1.23,0.397,1.867,0.615c0.638,0.218,1.261,0.471,1.868,0.759c0.607,0.289,1.148,0.653,1.625,1.094
	c0.476,0.44,0.857,0.979,1.146,1.617c0.288,0.638,0.434,1.412,0.434,2.323c0,0.992-0.17,1.921-0.51,2.787
	c-0.34,0.865-0.836,1.62-1.488,2.263c-0.652,0.642-1.45,1.148-2.392,1.518c-0.941,0.369-2.02,0.555-3.234,0.555
	c-0.698,0-1.388-0.069-2.065-0.206c-0.678-0.136-1.329-0.332-1.952-0.585c-0.622-0.252-1.207-0.556-1.753-0.911
	c-0.547-0.354-1.033-0.749-1.458-1.184l1.199-1.959c0.101-0.141,0.233-0.26,0.395-0.357c0.162-0.096,0.334-0.144,0.518-0.144
	c0.253,0,0.526,0.104,0.819,0.311c0.294,0.207,0.644,0.438,1.048,0.691s0.879,0.484,1.42,0.691c0.542,0.208,1.192,0.312,1.952,0.312
	c1.164,0,2.064-0.276,2.702-0.828c0.639-0.552,0.956-1.344,0.956-2.377c0-0.577-0.144-1.047-0.432-1.412
	c-0.289-0.364-0.671-0.671-1.146-0.919c-0.477-0.248-1.018-0.458-1.625-0.63s-1.226-0.359-1.854-0.562
	c-0.627-0.202-1.244-0.445-1.852-0.728c-0.608-0.284-1.149-0.654-1.625-1.109c-0.477-0.456-0.858-1.025-1.147-1.709
	c-0.288-0.683-0.432-1.526-0.432-2.528c0-0.799,0.159-1.579,0.478-2.339c0.319-0.759,0.782-1.432,1.391-2.02
	c0.606-0.586,1.355-1.057,2.246-1.412c0.892-0.354,1.914-0.531,3.067-0.531c1.296,0,2.491,0.202,3.584,0.607
	c1.094,0.405,2.025,0.972,2.795,1.701L64.077,48.791z"/>
<path fill="#4798C9" d="M80.735,48.791c-0.122,0.213-0.25,0.367-0.387,0.463c-0.137,0.096-0.306,0.144-0.509,0.144
	c-0.213,0-0.443-0.078-0.691-0.235c-0.248-0.157-0.544-0.332-0.888-0.524s-0.747-0.367-1.207-0.524
	c-0.461-0.157-1.005-0.235-1.633-0.235c-0.567,0-1.063,0.068-1.488,0.205c-0.425,0.136-0.782,0.326-1.071,0.569
	c-0.288,0.243-0.503,0.534-0.645,0.874c-0.143,0.338-0.212,0.711-0.212,1.115c0,0.517,0.144,0.948,0.432,1.291
	c0.289,0.344,0.671,0.638,1.147,0.881c0.475,0.243,1.017,0.46,1.625,0.653c0.606,0.192,1.229,0.397,1.867,0.615
	c0.638,0.218,1.261,0.471,1.867,0.759c0.608,0.289,1.149,0.653,1.625,1.094c0.477,0.44,0.858,0.979,1.147,1.617
	c0.288,0.638,0.433,1.412,0.433,2.323c0,0.992-0.17,1.921-0.509,2.787c-0.34,0.865-0.836,1.62-1.489,2.263
	c-0.651,0.642-1.449,1.148-2.391,1.518c-0.942,0.369-2.021,0.555-3.235,0.555c-0.698,0-1.387-0.069-2.064-0.206
	c-0.679-0.136-1.329-0.332-1.952-0.585c-0.622-0.252-1.207-0.556-1.753-0.911c-0.547-0.354-1.033-0.749-1.458-1.184l1.199-1.959
	c0.101-0.141,0.232-0.26,0.395-0.357c0.162-0.096,0.334-0.144,0.518-0.144c0.253,0,0.525,0.104,0.818,0.311
	c0.294,0.207,0.645,0.438,1.048,0.691c0.405,0.253,0.879,0.484,1.42,0.691c0.542,0.208,1.193,0.312,1.952,0.312
	c1.164,0,2.065-0.276,2.703-0.828c0.638-0.552,0.956-1.344,0.956-2.377c0-0.577-0.144-1.047-0.432-1.412
	c-0.289-0.364-0.671-0.671-1.147-0.919c-0.476-0.248-1.017-0.458-1.625-0.63c-0.606-0.172-1.225-0.359-1.853-0.562
	c-0.627-0.202-1.244-0.445-1.853-0.728c-0.607-0.284-1.148-0.654-1.625-1.109c-0.476-0.456-0.857-1.025-1.146-1.709
	c-0.288-0.683-0.433-1.526-0.433-2.528c0-0.799,0.159-1.579,0.479-2.339c0.318-0.759,0.782-1.432,1.39-2.02
	c0.607-0.586,1.356-1.057,2.247-1.412s1.914-0.531,3.067-0.531c1.296,0,2.49,0.202,3.584,0.607s2.024,0.972,2.794,1.701
	L80.735,48.791z"/>
<path fill="none" stroke="#FFFFFF" stroke-miterlimit="10" d="M80.735,48.791c-0.122,0.213-0.25,0.367-0.387,0.463
	c-0.137,0.096-0.306,0.144-0.509,0.144c-0.213,0-0.443-0.078-0.691-0.235c-0.248-0.157-0.544-0.332-0.888-0.524
	s-0.747-0.367-1.207-0.524c-0.461-0.157-1.005-0.235-1.633-0.235c-0.567,0-1.063,0.068-1.488,0.205
	c-0.425,0.136-0.782,0.326-1.071,0.569c-0.288,0.243-0.503,0.534-0.645,0.874c-0.143,0.338-0.212,0.711-0.212,1.115
	c0,0.517,0.144,0.948,0.432,1.291c0.289,0.344,0.671,0.638,1.147,0.881c0.475,0.243,1.017,0.46,1.625,0.653
	c0.606,0.192,1.229,0.397,1.867,0.615c0.638,0.218,1.261,0.471,1.867,0.759c0.608,0.289,1.149,0.653,1.625,1.094
	c0.477,0.44,0.858,0.979,1.147,1.617c0.288,0.638,0.433,1.412,0.433,2.323c0,0.992-0.17,1.921-0.509,2.787
	c-0.34,0.865-0.836,1.62-1.489,2.263c-0.651,0.642-1.449,1.148-2.391,1.518c-0.942,0.369-2.021,0.555-3.235,0.555
	c-0.698,0-1.387-0.069-2.064-0.206c-0.679-0.136-1.329-0.332-1.952-0.585c-0.622-0.252-1.207-0.556-1.753-0.911
	c-0.547-0.354-1.033-0.749-1.458-1.184l1.199-1.959c0.101-0.141,0.232-0.26,0.395-0.357c0.162-0.096,0.334-0.144,0.518-0.144
	c0.253,0,0.525,0.104,0.818,0.311c0.294,0.207,0.645,0.438,1.048,0.691c0.405,0.253,0.879,0.484,1.42,0.691
	c0.542,0.208,1.193,0.312,1.952,0.312c1.164,0,2.065-0.276,2.703-0.828c0.638-0.552,0.956-1.344,0.956-2.377
	c0-0.577-0.144-1.047-0.432-1.412c-0.289-0.364-0.671-0.671-1.147-0.919c-0.476-0.248-1.017-0.458-1.625-0.63
	c-0.606-0.172-1.225-0.359-1.853-0.562c-0.627-0.202-1.244-0.445-1.853-0.728c-0.607-0.284-1.148-0.654-1.625-1.109
	c-0.476-0.456-0.857-1.025-1.146-1.709c-0.288-0.683-0.433-1.526-0.433-2.528c0-0.799,0.159-1.579,0.479-2.339
	c0.318-0.759,0.782-1.432,1.39-2.02c0.607-0.586,1.356-1.057,2.247-1.412s1.914-0.531,3.067-0.531c1.296,0,2.49,0.202,3.584,0.607
	s2.024,0.972,2.794,1.701L80.735,48.791z"/>
<path fill="#FFFFFF" d="M16.403,113.364l-1.134,3.307h-0.033c-0.021,0-0.034-0.011-0.041-0.034l-1.06-3.078
	c-0.013-0.035-0.023-0.068-0.03-0.097c-0.007,0.029-0.017,0.062-0.03,0.097l-1.073,3.078c-0.007,0.023-0.018,0.034-0.034,0.034
	h-0.034l-1.134-3.307h0.047c0.018,0,0.032,0.005,0.041,0.015c0.009,0.011,0.016,0.021,0.02,0.032l1.012,3.03
	c0.009,0.026,0.018,0.05,0.026,0.074s0.014,0.047,0.019,0.072c0.004-0.025,0.01-0.049,0.018-0.072s0.016-0.048,0.025-0.074
	l1.053-3.064c0.007-0.022,0.018-0.034,0.034-0.034h0.02c0.016,0,0.027,0.012,0.034,0.034l1.046,3.064
	c0.018,0.05,0.031,0.095,0.041,0.135c0.006-0.022,0.014-0.044,0.021-0.066c0.008-0.02,0.017-0.043,0.026-0.069l1.012-3.03
	c0.016-0.031,0.036-0.047,0.061-0.047H16.403z"/>
<path fill="#FFFFFF" d="M21.445,113.364l-1.134,3.307h-0.033c-0.021,0-0.034-0.011-0.041-0.034l-1.06-3.078
	c-0.013-0.035-0.023-0.068-0.03-0.097c-0.007,0.029-0.017,0.062-0.03,0.097l-1.073,3.078c-0.007,0.023-0.018,0.034-0.034,0.034
	h-0.034l-1.134-3.307h0.047c0.019,0,0.032,0.005,0.041,0.015c0.009,0.011,0.016,0.021,0.02,0.032l1.012,3.03
	c0.01,0.026,0.018,0.05,0.026,0.074c0.008,0.023,0.014,0.047,0.019,0.072c0.004-0.025,0.01-0.049,0.018-0.072
	c0.008-0.023,0.016-0.048,0.025-0.074l1.053-3.064c0.007-0.022,0.018-0.034,0.034-0.034h0.02c0.016,0,0.027,0.012,0.034,0.034
	l1.046,3.064c0.018,0.05,0.031,0.095,0.041,0.135c0.006-0.022,0.014-0.044,0.021-0.066c0.008-0.02,0.017-0.043,0.026-0.069
	l1.012-3.03c0.016-0.031,0.036-0.047,0.061-0.047H21.445z"/>
<path fill="#FFFFFF" d="M26.486,113.364l-1.134,3.307h-0.033c-0.021,0-0.034-0.011-0.041-0.034l-1.06-3.078
	c-0.013-0.035-0.023-0.068-0.03-0.097c-0.007,0.029-0.017,0.062-0.03,0.097l-1.073,3.078c-0.007,0.023-0.018,0.034-0.034,0.034
	h-0.034l-1.134-3.307h0.047c0.019,0,0.032,0.005,0.041,0.015c0.009,0.011,0.016,0.021,0.02,0.032l1.013,3.03
	c0.009,0.026,0.017,0.05,0.025,0.074s0.014,0.047,0.019,0.072c0.004-0.025,0.01-0.049,0.018-0.072s0.016-0.048,0.025-0.074
	l1.053-3.064c0.007-0.022,0.018-0.034,0.034-0.034h0.02c0.016,0,0.027,0.012,0.034,0.034l1.046,3.064
	c0.019,0.05,0.032,0.095,0.041,0.135c0.006-0.022,0.014-0.044,0.021-0.066c0.009-0.02,0.018-0.043,0.026-0.069l1.012-3.03
	c0.017-0.031,0.036-0.047,0.062-0.047H26.486z"/>
<path fill="#FFFFFF" d="M27.125,116.509c0-0.06,0.021-0.113,0.063-0.156c0.041-0.044,0.092-0.066,0.153-0.066
	c0.061,0,0.112,0.022,0.156,0.066c0.044,0.043,0.066,0.096,0.066,0.156c0,0.061-0.022,0.112-0.066,0.154
	c-0.044,0.041-0.096,0.063-0.156,0.063c-0.062,0-0.112-0.022-0.153-0.063C27.145,116.621,27.125,116.569,27.125,116.509"/>
<path fill="#FFFFFF" d="M31.022,113.364l-1.438,3.307h-0.061l-1.438-3.307h0.048c0.019,0,0.031,0.005,0.04,0.015
	c0.01,0.011,0.017,0.021,0.021,0.032l1.315,3.03c0.013,0.021,0.021,0.041,0.027,0.063c0.007,0.021,0.013,0.042,0.018,0.062
	c0.005-0.02,0.01-0.041,0.017-0.062c0.007-0.022,0.016-0.042,0.027-0.063l1.315-3.03c0.016-0.031,0.036-0.047,0.062-0.047H31.022z"
	/>
<path fill="#FFFFFF" d="M32.095,112.135c0,0.047-0.02,0.09-0.06,0.127c-0.039,0.037-0.082,0.055-0.13,0.055
	c-0.052,0-0.097-0.019-0.134-0.055c-0.037-0.037-0.056-0.08-0.056-0.127c0-0.051,0.019-0.096,0.056-0.133s0.082-0.055,0.134-0.055
	c0.048,0,0.091,0.018,0.13,0.055C32.076,112.039,32.095,112.084,32.095,112.135 M31.947,116.671h-0.081v-3.307h0.081V116.671z"/>
<path fill="#FFFFFF" d="M34.947,113.654c-0.008,0.014-0.019,0.021-0.034,0.021c-0.019,0-0.044-0.016-0.079-0.047
	c-0.035-0.029-0.086-0.063-0.152-0.1c-0.066-0.037-0.15-0.072-0.251-0.103c-0.101-0.032-0.226-0.048-0.375-0.048
	c-0.139,0-0.267,0.022-0.383,0.064c-0.116,0.043-0.215,0.1-0.298,0.171c-0.084,0.071-0.149,0.152-0.194,0.245
	c-0.047,0.092-0.07,0.188-0.07,0.29c0,0.119,0.028,0.219,0.084,0.299c0.058,0.08,0.132,0.146,0.223,0.202s0.194,0.102,0.312,0.14
	s0.236,0.076,0.357,0.113c0.122,0.037,0.241,0.077,0.357,0.118c0.117,0.042,0.222,0.094,0.313,0.157
	c0.091,0.063,0.165,0.14,0.221,0.231c0.057,0.092,0.085,0.205,0.085,0.34c0,0.135-0.023,0.262-0.073,0.381
	c-0.048,0.119-0.118,0.223-0.211,0.31c-0.092,0.088-0.205,0.158-0.339,0.209c-0.134,0.052-0.286,0.078-0.457,0.078
	c-0.119,0-0.226-0.01-0.32-0.029c-0.095-0.02-0.182-0.046-0.261-0.079c-0.078-0.033-0.151-0.075-0.222-0.125
	c-0.07-0.049-0.138-0.104-0.206-0.165l0.021-0.02c0.007-0.008,0.013-0.012,0.017-0.016c0.005-0.003,0.012-0.005,0.024-0.005
	c0.018,0,0.047,0.019,0.087,0.058c0.041,0.038,0.097,0.081,0.171,0.128c0.073,0.047,0.166,0.09,0.277,0.128
	c0.113,0.038,0.25,0.058,0.412,0.058s0.306-0.024,0.431-0.071c0.125-0.048,0.229-0.112,0.315-0.194
	c0.085-0.083,0.15-0.178,0.194-0.287s0.064-0.227,0.064-0.353c0-0.128-0.027-0.235-0.084-0.319c-0.056-0.085-0.13-0.155-0.221-0.214
	c-0.091-0.058-0.195-0.108-0.312-0.146c-0.117-0.039-0.236-0.077-0.358-0.113c-0.121-0.036-0.241-0.074-0.357-0.115
	c-0.117-0.04-0.221-0.09-0.312-0.15c-0.092-0.06-0.165-0.133-0.222-0.22c-0.057-0.089-0.084-0.197-0.084-0.328
	c0-0.111,0.024-0.215,0.073-0.316c0.051-0.1,0.119-0.189,0.21-0.266c0.09-0.078,0.197-0.14,0.322-0.186s0.262-0.069,0.413-0.069
	c0.188,0,0.351,0.025,0.493,0.076c0.141,0.05,0.279,0.133,0.412,0.248L34.947,113.654z"/>
<path fill="#FFFFFF" d="M36.324,112.135c0,0.047-0.021,0.09-0.06,0.127c-0.039,0.037-0.083,0.055-0.13,0.055
	c-0.052,0-0.096-0.019-0.133-0.055c-0.038-0.037-0.057-0.08-0.057-0.127c0-0.051,0.019-0.096,0.057-0.133
	c0.037-0.037,0.081-0.055,0.133-0.055c0.047,0,0.091,0.018,0.13,0.055S36.324,112.084,36.324,112.135 M36.174,116.671h-0.081v-3.307
	h0.081V116.671z"/>
<path fill="#FFFFFF" d="M38.263,116.725c-0.194,0-0.345-0.053-0.456-0.159c-0.11-0.105-0.165-0.28-0.165-0.523v-2.47h-0.546
	c-0.032,0-0.048-0.012-0.048-0.034v-0.02l0.594-0.014l0.027-1.329c0-0.012,0.003-0.022,0.009-0.033
	c0.005-0.009,0.014-0.014,0.024-0.014h0.021v1.376h1.127v0.068h-1.127v2.47c0,0.113,0.014,0.208,0.042,0.285
	s0.067,0.141,0.117,0.189c0.049,0.048,0.106,0.084,0.172,0.106c0.064,0.022,0.135,0.033,0.209,0.033
	c0.095,0,0.177-0.014,0.248-0.044c0.071-0.029,0.131-0.06,0.181-0.094c0.049-0.034,0.089-0.065,0.119-0.095
	c0.031-0.028,0.053-0.043,0.066-0.043c0.009,0,0.018,0.004,0.026,0.013l0.015,0.014c-0.034,0.044-0.075,0.086-0.124,0.126
	c-0.048,0.04-0.102,0.073-0.158,0.101s-0.118,0.05-0.182,0.066C38.389,116.717,38.326,116.725,38.263,116.725"/>
<path fill="#FFFFFF" d="M39.754,111.812v3.051h0.155c0.021,0,0.044-0.003,0.071-0.008c0.026-0.004,0.057-0.021,0.091-0.053
	l1.573-1.384c0.018-0.017,0.036-0.032,0.054-0.041c0.018-0.009,0.04-0.013,0.067-0.013h0.061l-1.674,1.465
	c-0.029,0.026-0.057,0.046-0.084,0.057c0.031,0.009,0.058,0.02,0.081,0.035c0.021,0.015,0.044,0.032,0.063,0.05l1.748,1.7h-0.061
	c-0.019,0-0.034-0.002-0.047-0.006c-0.013-0.005-0.029-0.016-0.047-0.034l-1.661-1.613c-0.04-0.037-0.076-0.061-0.108-0.074
	c-0.031-0.014-0.081-0.021-0.147-0.021h-0.136v1.748h-0.081v-4.859H39.754z"/>
<path fill="#FFFFFF" d="M45.208,113.364l-1.951,4.447c-0.006,0.018-0.017,0.036-0.03,0.051c-0.013,0.016-0.03,0.024-0.051,0.024
	h-0.047l0.566-1.273l-1.431-3.249h0.047c0.02,0,0.033,0.005,0.045,0.015c0.011,0.011,0.019,0.021,0.023,0.032l1.315,3.004
	c0.019,0.038,0.033,0.08,0.044,0.124c0.004-0.02,0.012-0.041,0.02-0.062s0.016-0.042,0.024-0.062l1.316-3.004
	c0.016-0.031,0.036-0.047,0.061-0.047H45.208z"/>
<path fill="#FFFFFF" d="M46.274,112.135c0,0.047-0.02,0.09-0.059,0.127c-0.039,0.037-0.082,0.055-0.13,0.055
	c-0.052,0-0.096-0.019-0.133-0.055c-0.037-0.037-0.057-0.08-0.057-0.127c0-0.051,0.02-0.096,0.057-0.133s0.081-0.055,0.133-0.055
	c0.048,0,0.091,0.018,0.13,0.055S46.274,112.084,46.274,112.135 M46.126,116.671h-0.081v-3.307h0.081V116.671z"/>
<path fill="#FFFFFF" d="M49.906,113.364l-1.438,3.307h-0.061l-1.438-3.307h0.047c0.02,0,0.032,0.005,0.041,0.015
	c0.009,0.011,0.017,0.021,0.021,0.032l1.315,3.03c0.013,0.021,0.021,0.041,0.027,0.063c0.007,0.021,0.013,0.042,0.017,0.062
	c0.006-0.02,0.011-0.041,0.018-0.062c0.007-0.022,0.016-0.042,0.026-0.063l1.316-3.03c0.016-0.031,0.036-0.047,0.061-0.047H49.906z"
	/>
<path fill="#FFFFFF" d="M50.432,116.509c0-0.06,0.021-0.113,0.063-0.156c0.041-0.044,0.092-0.066,0.153-0.066
	c0.061,0,0.113,0.022,0.157,0.066c0.044,0.043,0.065,0.096,0.065,0.156c0,0.061-0.021,0.112-0.065,0.154
	c-0.044,0.041-0.097,0.063-0.157,0.063c-0.062,0-0.112-0.022-0.153-0.063C50.453,116.621,50.432,116.569,50.432,116.509"/>
<path fill="#FFFFFF" d="M52.862,116.725c-0.194,0-0.346-0.053-0.456-0.159c-0.11-0.105-0.165-0.28-0.165-0.523v-2.47h-0.546
	c-0.032,0-0.049-0.012-0.049-0.034v-0.02l0.595-0.014l0.026-1.329c0-0.012,0.003-0.022,0.01-0.033
	c0.005-0.009,0.014-0.014,0.024-0.014h0.021v1.376h1.127v0.068h-1.127v2.47c0,0.113,0.014,0.208,0.042,0.285
	c0.027,0.077,0.066,0.141,0.116,0.189c0.05,0.048,0.107,0.084,0.172,0.106c0.065,0.022,0.136,0.033,0.21,0.033
	c0.095,0,0.177-0.014,0.247-0.044c0.071-0.029,0.132-0.06,0.182-0.094c0.049-0.034,0.089-0.065,0.119-0.095
	c0.03-0.028,0.053-0.043,0.065-0.043c0.009,0,0.019,0.004,0.027,0.013l0.014,0.014c-0.034,0.044-0.075,0.086-0.124,0.126
	c-0.048,0.04-0.101,0.073-0.158,0.101c-0.057,0.028-0.117,0.05-0.182,0.066C52.988,116.717,52.924,116.725,52.862,116.725"/>
<path fill="#FFFFFF" d="M54.353,114.332c0.047-0.161,0.103-0.307,0.169-0.433c0.065-0.127,0.143-0.235,0.234-0.322
	c0.091-0.089,0.195-0.155,0.313-0.2c0.118-0.044,0.253-0.067,0.403-0.067c0.065,0,0.132,0.005,0.201,0.015
	c0.068,0.01,0.13,0.03,0.184,0.059l-0.013,0.027c-0.005,0.006-0.009,0.013-0.012,0.019c-0.005,0.006-0.012,0.008-0.022,0.008
	c-0.012,0-0.026-0.002-0.044-0.008c-0.018-0.006-0.04-0.013-0.066-0.019c-0.025-0.007-0.057-0.012-0.094-0.018
	c-0.038-0.006-0.082-0.009-0.134-0.009c-0.148,0-0.28,0.024-0.396,0.071c-0.113,0.047-0.216,0.117-0.305,0.209
	s-0.167,0.208-0.236,0.348c-0.068,0.14-0.13,0.301-0.184,0.486v2.173h-0.081v-3.307h0.021c0.031,0,0.047,0.018,0.047,0.053
	L54.353,114.332z"/>
<path fill="#FFFFFF" d="M56.413,113.836c0.161-0.171,0.329-0.302,0.502-0.391c0.174-0.09,0.375-0.136,0.604-0.136
	c0.169,0,0.315,0.028,0.438,0.082c0.123,0.054,0.225,0.131,0.306,0.232c0.08,0.102,0.141,0.225,0.178,0.37
	c0.039,0.145,0.059,0.309,0.059,0.491v2.187h-0.015c-0.03,0-0.047-0.018-0.047-0.054l-0.02-0.54
	c-0.095,0.099-0.189,0.188-0.284,0.268c-0.094,0.08-0.194,0.148-0.3,0.205c-0.106,0.056-0.219,0.099-0.341,0.129
	c-0.121,0.031-0.256,0.046-0.405,0.046c-0.099,0-0.199-0.015-0.3-0.046c-0.102-0.03-0.192-0.078-0.274-0.145
	c-0.08-0.066-0.146-0.151-0.198-0.256c-0.052-0.105-0.078-0.233-0.078-0.383c0-0.149,0.045-0.282,0.132-0.4
	c0.088-0.118,0.222-0.219,0.399-0.302c0.18-0.083,0.405-0.149,0.679-0.198c0.273-0.048,0.597-0.077,0.971-0.086v-0.425
	c0-0.173-0.02-0.328-0.059-0.465c-0.037-0.138-0.094-0.254-0.168-0.348c-0.073-0.095-0.168-0.167-0.279-0.218
	c-0.113-0.05-0.243-0.076-0.393-0.076c-0.116,0-0.222,0.012-0.316,0.037c-0.096,0.025-0.18,0.055-0.253,0.092
	c-0.074,0.036-0.14,0.075-0.194,0.117c-0.055,0.043-0.103,0.083-0.144,0.119c-0.04,0.035-0.073,0.066-0.099,0.091
	c-0.023,0.024-0.042,0.037-0.054,0.037c-0.009,0-0.021-0.007-0.033-0.02L56.413,113.836z M58.417,114.977
	c-0.709,0.022-1.236,0.11-1.581,0.264c-0.346,0.154-0.519,0.373-0.519,0.654c0,0.132,0.022,0.247,0.066,0.342
	c0.043,0.096,0.101,0.174,0.174,0.236c0.072,0.063,0.154,0.108,0.246,0.139c0.092,0.03,0.187,0.046,0.283,0.046
	c0.156,0,0.296-0.018,0.422-0.055c0.126-0.036,0.242-0.084,0.349-0.145c0.107-0.061,0.206-0.131,0.298-0.211
	c0.091-0.08,0.179-0.164,0.262-0.251V114.977z"/>
<path fill="#FFFFFF" d="M62.162,113.364l-1.437,3.307h-0.062l-1.438-3.307h0.048c0.018,0,0.03,0.005,0.04,0.015
	c0.009,0.011,0.016,0.021,0.02,0.032l1.316,3.03c0.012,0.021,0.021,0.041,0.026,0.063c0.008,0.021,0.014,0.042,0.018,0.062
	c0.005-0.02,0.01-0.041,0.017-0.062c0.007-0.022,0.017-0.042,0.027-0.063l1.315-3.03c0.017-0.031,0.036-0.047,0.062-0.047H62.162z"
	/>
<path fill="#FFFFFF" d="M65.293,116.28c-0.038,0.047-0.095,0.096-0.171,0.146c-0.074,0.051-0.164,0.098-0.266,0.14
	c-0.104,0.043-0.215,0.078-0.336,0.105c-0.122,0.027-0.246,0.041-0.375,0.041c-0.228,0-0.432-0.04-0.61-0.12
	c-0.18-0.08-0.333-0.195-0.458-0.346c-0.125-0.151-0.221-0.335-0.288-0.554c-0.067-0.218-0.102-0.465-0.102-0.742
	c0-0.243,0.033-0.465,0.098-0.666c0.065-0.202,0.16-0.374,0.284-0.519c0.123-0.143,0.275-0.255,0.454-0.335
	c0.178-0.08,0.382-0.12,0.609-0.12c0.173,0,0.336,0.031,0.488,0.093c0.153,0.062,0.286,0.153,0.4,0.275
	c0.114,0.121,0.203,0.27,0.268,0.447c0.066,0.177,0.099,0.379,0.099,0.609c0,0.012-0.004,0.02-0.013,0.026
	c-0.008,0.005-0.017,0.008-0.027,0.008h-2.572c-0.002,0.031-0.004,0.063-0.005,0.091s-0.002,0.06-0.002,0.091
	c0,0.274,0.033,0.517,0.098,0.727c0.066,0.211,0.158,0.387,0.279,0.53c0.12,0.143,0.265,0.252,0.435,0.326
	c0.17,0.074,0.358,0.111,0.565,0.111c0.185,0,0.345-0.02,0.479-0.06c0.135-0.041,0.247-0.086,0.337-0.135
	c0.091-0.05,0.159-0.095,0.206-0.135c0.048-0.041,0.075-0.061,0.084-0.061c0.01,0,0.019,0.005,0.027,0.013L65.293,116.28z
	 M65.314,114.707c0-0.213-0.031-0.403-0.091-0.568c-0.062-0.166-0.146-0.304-0.252-0.417c-0.106-0.112-0.232-0.198-0.376-0.257
	c-0.145-0.058-0.299-0.088-0.462-0.088c-0.198,0-0.378,0.032-0.535,0.095c-0.159,0.063-0.296,0.153-0.41,0.27
	c-0.115,0.117-0.206,0.257-0.275,0.42c-0.068,0.164-0.112,0.345-0.133,0.545H65.314z"/>
<rect x="66.417" y="111.812" fill="#FFFFFF" width="0.081" height="4.859"/>
<path fill-rule="evenodd" clip-rule="evenodd" fill="#FFFFFF" d="M122.925,111.723h-4.056c-0.509,0-0.922,0.413-0.922,0.922v4.056
	c0,0.51,0.413,0.923,0.922,0.923h4.056c0.511,0,0.924-0.413,0.924-0.923v-4.056C123.849,112.136,123.436,111.723,122.925,111.723
	 M122.162,112.536c0-0.09,0.073-0.164,0.164-0.164h0.713c0.091,0,0.164,0.074,0.164,0.164v0.713c0,0.091-0.073,0.165-0.164,0.165
	h-0.713c-0.091,0-0.164-0.074-0.164-0.165V112.536z M119.811,114.247c0.17-0.434,0.593-0.742,1.087-0.742s0.918,0.308,1.088,0.742
	c0.052,0.132,0.081,0.276,0.081,0.426c0,0.644-0.524,1.169-1.169,1.169s-1.168-0.525-1.168-1.169
	C119.73,114.523,119.757,114.379,119.811,114.247 M123.224,116.701c0,0.164-0.135,0.298-0.299,0.298h-4.056
	c-0.164,0-0.297-0.134-0.297-0.298v-2.454h0.582c-0.033,0.137-0.05,0.279-0.05,0.426c0,0.991,0.803,1.794,1.793,1.794
	s1.794-0.803,1.794-1.794c0-0.147-0.019-0.289-0.052-0.426h0.584V116.701z"/>
<path fill-rule="evenodd" clip-rule="evenodd" fill="#FFFFFF" d="M131.987,112.115c0.201-0.007,0.401-0.002,0.603-0.002h0.083
	v-1.043c-0.107-0.011-0.22-0.026-0.332-0.032c-0.205-0.009-0.411-0.019-0.617-0.015c-0.315,0.007-0.612,0.084-0.872,0.27
	c-0.298,0.215-0.462,0.515-0.524,0.871c-0.025,0.147-0.032,0.299-0.037,0.448c-0.005,0.234,0,0.468,0,0.702v0.088h-0.997v1.165
	h0.991v2.93h1.213v-2.925h0.989c0.051-0.387,0.101-0.771,0.153-1.171c-0.08,0-0.152,0-0.224,0c-0.28,0.001-0.927,0-0.927,0
	s0.003-0.577,0.009-0.828C131.508,112.23,131.712,112.125,131.987,112.115"/>
<path fill="#FFFFFF" d="M144.279,113.364l-1.437,3.307h-0.062l-1.438-3.307h0.048c0.018,0,0.03,0.005,0.04,0.015
	c0.009,0.01,0.016,0.021,0.02,0.032l1.316,3.031c0.012,0.02,0.021,0.041,0.026,0.062c0.008,0.021,0.014,0.042,0.018,0.062
	c0.005-0.02,0.01-0.041,0.017-0.062s0.017-0.042,0.027-0.062l1.316-3.031c0.016-0.031,0.035-0.047,0.061-0.047H144.279z"/>
<path fill="#FFFFFF" d="M145.352,112.135c0,0.048-0.02,0.09-0.059,0.127c-0.039,0.037-0.083,0.055-0.13,0.055
	c-0.053,0-0.097-0.019-0.133-0.055c-0.037-0.037-0.057-0.079-0.057-0.127c0-0.051,0.02-0.096,0.057-0.133
	c0.036-0.037,0.08-0.056,0.133-0.056c0.047,0,0.091,0.019,0.13,0.056S145.352,112.084,145.352,112.135 M145.204,116.671h-0.081
	v-3.307h0.081V116.671z"/>
<path fill="#FFFFFF" d="M148.204,113.654c-0.007,0.014-0.019,0.021-0.034,0.021c-0.018,0-0.044-0.016-0.079-0.046
	c-0.035-0.031-0.086-0.064-0.151-0.101c-0.066-0.038-0.15-0.072-0.252-0.103c-0.101-0.032-0.226-0.047-0.375-0.047
	c-0.139,0-0.267,0.021-0.383,0.063c-0.115,0.043-0.215,0.1-0.298,0.171c-0.084,0.071-0.148,0.152-0.194,0.245
	c-0.047,0.092-0.069,0.189-0.069,0.29c0,0.119,0.027,0.219,0.084,0.298c0.057,0.08,0.131,0.148,0.222,0.203s0.195,0.102,0.313,0.14
	c0.116,0.038,0.235,0.076,0.356,0.113c0.122,0.037,0.241,0.076,0.358,0.118s0.221,0.094,0.312,0.157
	c0.091,0.063,0.165,0.14,0.222,0.231c0.056,0.091,0.085,0.205,0.085,0.339c0,0.135-0.024,0.263-0.073,0.382
	c-0.048,0.119-0.119,0.223-0.211,0.31c-0.092,0.088-0.205,0.158-0.339,0.21c-0.135,0.051-0.286,0.077-0.457,0.077
	c-0.119,0-0.227-0.01-0.321-0.029c-0.094-0.02-0.181-0.045-0.26-0.079c-0.078-0.034-0.152-0.075-0.223-0.125
	c-0.069-0.049-0.138-0.104-0.206-0.165l0.021-0.021c0.007-0.006,0.013-0.011,0.017-0.015c0.005-0.003,0.013-0.005,0.024-0.005
	c0.018,0,0.047,0.02,0.087,0.057c0.041,0.039,0.097,0.082,0.171,0.129c0.073,0.047,0.166,0.09,0.278,0.128
	c0.112,0.038,0.25,0.057,0.412,0.057s0.305-0.023,0.43-0.071c0.125-0.046,0.229-0.111,0.316-0.193
	c0.085-0.083,0.149-0.178,0.193-0.287c0.043-0.109,0.065-0.227,0.065-0.353c0-0.128-0.028-0.235-0.084-0.319
	c-0.057-0.084-0.13-0.155-0.221-0.214c-0.092-0.059-0.195-0.106-0.313-0.146c-0.117-0.039-0.236-0.077-0.358-0.113
	c-0.12-0.036-0.24-0.074-0.356-0.115c-0.118-0.04-0.221-0.09-0.313-0.15c-0.092-0.059-0.165-0.133-0.222-0.221
	c-0.056-0.088-0.084-0.197-0.084-0.327c0-0.11,0.025-0.215,0.074-0.316c0.05-0.1,0.119-0.189,0.21-0.266
	c0.089-0.078,0.197-0.14,0.322-0.186s0.262-0.069,0.412-0.069c0.188,0,0.352,0.025,0.493,0.076c0.142,0.05,0.279,0.133,0.412,0.248
	L148.204,113.654z"/>
<path fill="#FFFFFF" d="M149.581,112.135c0,0.048-0.021,0.09-0.06,0.127c-0.039,0.037-0.082,0.055-0.13,0.055
	c-0.052,0-0.096-0.019-0.133-0.055c-0.037-0.037-0.056-0.079-0.056-0.127c0-0.051,0.019-0.096,0.056-0.133s0.081-0.056,0.133-0.056
	c0.048,0,0.091,0.019,0.13,0.056S149.581,112.084,149.581,112.135 M149.432,116.671h-0.081v-3.307h0.081V116.671z"/>
<path fill="#FFFFFF" d="M151.521,116.725c-0.194,0-0.346-0.053-0.456-0.159c-0.11-0.105-0.165-0.28-0.165-0.523v-2.47h-0.546
	c-0.032,0-0.048-0.011-0.048-0.034v-0.02l0.594-0.013l0.027-1.33c0-0.011,0.003-0.022,0.009-0.032
	c0.005-0.01,0.014-0.015,0.024-0.015h0.021v1.377h1.127v0.067h-1.127v2.47c0,0.113,0.014,0.208,0.042,0.286
	c0.027,0.077,0.066,0.14,0.117,0.188c0.049,0.049,0.106,0.084,0.172,0.107c0.064,0.022,0.135,0.033,0.209,0.033
	c0.095,0,0.177-0.014,0.248-0.043c0.07-0.03,0.131-0.061,0.181-0.095c0.049-0.034,0.089-0.065,0.119-0.094
	c0.031-0.03,0.053-0.044,0.065-0.044c0.01,0,0.019,0.004,0.027,0.013l0.014,0.014c-0.033,0.045-0.074,0.087-0.123,0.126
	c-0.049,0.04-0.102,0.074-0.158,0.102c-0.058,0.028-0.118,0.049-0.183,0.066C151.647,116.717,151.583,116.725,151.521,116.725"/>
<path fill="#FFFFFF" d="M153.012,111.812v3.05h0.155c0.02,0,0.044-0.002,0.071-0.006c0.026-0.005,0.057-0.022,0.091-0.054
	l1.572-1.384c0.019-0.019,0.036-0.032,0.055-0.04c0.018-0.009,0.04-0.014,0.066-0.014h0.062l-1.674,1.465
	c-0.029,0.027-0.058,0.046-0.084,0.057c0.03,0.009,0.058,0.021,0.081,0.035c0.021,0.015,0.044,0.032,0.063,0.049l1.748,1.701h-0.061
	c-0.019,0-0.034-0.002-0.047-0.006c-0.014-0.005-0.029-0.016-0.048-0.034l-1.66-1.613c-0.04-0.036-0.076-0.061-0.108-0.074
	c-0.031-0.014-0.081-0.021-0.148-0.021h-0.135v1.748h-0.081v-4.859H153.012z"/>
<path fill="#FFFFFF" d="M158.465,113.364l-1.951,4.448c-0.006,0.018-0.016,0.035-0.029,0.05c-0.014,0.016-0.03,0.024-0.052,0.024
	h-0.047l0.567-1.272l-1.43-3.25h0.046c0.019,0,0.033,0.005,0.045,0.015c0.011,0.01,0.019,0.021,0.022,0.032l1.316,3.003
	c0.018,0.039,0.033,0.08,0.044,0.126c0.004-0.021,0.011-0.042,0.02-0.063c0.008-0.021,0.016-0.042,0.024-0.063l1.316-3.003
	c0.016-0.031,0.036-0.047,0.061-0.047H158.465z"/>
<path fill="#FFFFFF" d="M159.532,112.135c0,0.048-0.02,0.09-0.06,0.127c-0.039,0.037-0.082,0.055-0.13,0.055
	c-0.052,0-0.096-0.019-0.133-0.055c-0.037-0.037-0.056-0.079-0.056-0.127c0-0.051,0.019-0.096,0.056-0.133s0.081-0.056,0.133-0.056
	c0.048,0,0.091,0.019,0.13,0.056C159.512,112.039,159.532,112.084,159.532,112.135 M159.383,116.671h-0.081v-3.307h0.081V116.671z"
	/>
<path fill="#FFFFFF" d="M163.163,113.364l-1.438,3.307h-0.061l-1.438-3.307h0.049c0.018,0,0.03,0.005,0.04,0.015
	c0.009,0.01,0.016,0.021,0.02,0.032l1.316,3.031c0.012,0.02,0.021,0.041,0.026,0.062c0.007,0.021,0.014,0.042,0.018,0.062
	c0.005-0.02,0.01-0.041,0.017-0.062s0.016-0.042,0.027-0.062l1.315-3.031c0.017-0.031,0.036-0.047,0.062-0.047H163.163z"/>
<path fill="#FFFFFF" d="M164.772,116.725c-0.193,0-0.345-0.053-0.456-0.159c-0.109-0.105-0.164-0.28-0.164-0.523v-2.47h-0.547
	c-0.031,0-0.048-0.011-0.048-0.034v-0.02l0.595-0.013l0.026-1.33c0-0.011,0.003-0.022,0.009-0.032
	c0.006-0.01,0.015-0.015,0.025-0.015h0.02v1.377h1.127v0.067h-1.127v2.47c0,0.113,0.015,0.208,0.042,0.286
	c0.028,0.077,0.067,0.14,0.117,0.188c0.049,0.049,0.107,0.084,0.172,0.107c0.065,0.022,0.136,0.033,0.209,0.033
	c0.096,0,0.178-0.014,0.248-0.043c0.071-0.03,0.132-0.061,0.182-0.095c0.049-0.034,0.089-0.065,0.119-0.094
	c0.03-0.03,0.053-0.044,0.065-0.044c0.009,0,0.019,0.004,0.027,0.013l0.014,0.014c-0.034,0.045-0.075,0.087-0.124,0.126
	c-0.048,0.04-0.101,0.074-0.158,0.102c-0.057,0.028-0.118,0.049-0.182,0.066C164.898,116.717,164.835,116.725,164.772,116.725"/>
<path fill="#FFFFFF" d="M166.264,114.332c0.047-0.162,0.103-0.306,0.169-0.434c0.064-0.127,0.143-0.234,0.234-0.322
	c0.091-0.088,0.195-0.154,0.313-0.199c0.118-0.045,0.253-0.067,0.403-0.067c0.065,0,0.132,0.005,0.201,0.015
	c0.068,0.01,0.13,0.03,0.184,0.059l-0.013,0.027c-0.005,0.007-0.01,0.013-0.013,0.019c-0.004,0.005-0.011,0.008-0.021,0.008
	c-0.012,0-0.026-0.003-0.044-0.008c-0.019-0.006-0.04-0.012-0.066-0.019c-0.025-0.007-0.057-0.013-0.094-0.019
	c-0.038-0.005-0.082-0.008-0.134-0.008c-0.148,0-0.28,0.023-0.396,0.071c-0.114,0.047-0.216,0.117-0.305,0.209
	c-0.089,0.092-0.167,0.208-0.236,0.348c-0.068,0.139-0.13,0.301-0.184,0.485v2.174h-0.081v-3.307h0.02
	c0.032,0,0.047,0.018,0.047,0.054L166.264,114.332z"/>
<path fill="#FFFFFF" d="M168.323,113.836c0.161-0.171,0.329-0.301,0.503-0.391c0.174-0.09,0.374-0.135,0.604-0.135
	c0.169,0,0.315,0.027,0.438,0.081c0.123,0.054,0.225,0.131,0.306,0.233c0.08,0.101,0.14,0.224,0.178,0.369
	c0.039,0.145,0.059,0.309,0.059,0.491v2.187h-0.015c-0.03,0-0.047-0.018-0.047-0.054l-0.02-0.54
	c-0.096,0.099-0.189,0.188-0.284,0.268c-0.094,0.08-0.194,0.148-0.3,0.204c-0.106,0.057-0.22,0.101-0.342,0.13
	c-0.12,0.031-0.256,0.046-0.404,0.046c-0.1,0-0.199-0.015-0.3-0.046c-0.102-0.03-0.192-0.079-0.274-0.145
	c-0.08-0.066-0.146-0.151-0.199-0.256c-0.051-0.105-0.077-0.233-0.077-0.383c0-0.149,0.044-0.282,0.132-0.4s0.222-0.219,0.399-0.302
	c0.179-0.083,0.405-0.149,0.678-0.197c0.274-0.049,0.598-0.078,0.972-0.087v-0.425c0-0.173-0.02-0.328-0.059-0.466
	c-0.038-0.137-0.094-0.253-0.168-0.347c-0.074-0.095-0.168-0.167-0.279-0.218c-0.113-0.05-0.243-0.076-0.393-0.076
	c-0.117,0-0.222,0.013-0.316,0.038c-0.096,0.024-0.18,0.055-0.254,0.091c-0.073,0.035-0.139,0.075-0.193,0.118
	c-0.055,0.042-0.104,0.082-0.145,0.118c-0.04,0.036-0.072,0.066-0.098,0.091c-0.024,0.025-0.042,0.037-0.054,0.037
	c-0.009,0-0.021-0.007-0.033-0.021L168.323,113.836z M170.328,114.977c-0.709,0.022-1.236,0.111-1.581,0.265
	c-0.347,0.154-0.519,0.371-0.519,0.653c0,0.132,0.022,0.247,0.066,0.342c0.043,0.096,0.101,0.175,0.174,0.237
	c0.072,0.061,0.154,0.107,0.246,0.138c0.092,0.03,0.186,0.045,0.283,0.045c0.156,0,0.296-0.017,0.422-0.054
	c0.126-0.036,0.242-0.084,0.349-0.145c0.107-0.061,0.206-0.131,0.297-0.211c0.092-0.08,0.18-0.163,0.263-0.251V114.977z"/>
<path fill="#FFFFFF" d="M174.073,113.364l-1.438,3.307h-0.061l-1.438-3.307h0.049c0.018,0,0.03,0.005,0.04,0.015
	c0.009,0.01,0.016,0.021,0.02,0.032l1.316,3.031c0.012,0.02,0.021,0.041,0.026,0.062c0.007,0.021,0.014,0.042,0.018,0.062
	c0.005-0.02,0.01-0.041,0.017-0.062s0.016-0.042,0.027-0.062l1.315-3.031c0.017-0.031,0.036-0.047,0.062-0.047H174.073z"/>
<path fill="#FFFFFF" d="M177.205,116.28c-0.038,0.047-0.095,0.096-0.171,0.146c-0.075,0.051-0.164,0.098-0.266,0.14
	c-0.104,0.043-0.214,0.078-0.336,0.105c-0.121,0.027-0.246,0.041-0.375,0.041c-0.228,0-0.432-0.041-0.61-0.12
	c-0.18-0.08-0.333-0.195-0.458-0.346c-0.125-0.151-0.221-0.335-0.288-0.554c-0.068-0.218-0.102-0.465-0.102-0.742
	c0-0.243,0.032-0.465,0.098-0.666c0.065-0.202,0.16-0.374,0.284-0.518c0.123-0.144,0.274-0.256,0.454-0.336
	c0.178-0.08,0.382-0.12,0.608-0.12c0.173,0,0.336,0.031,0.489,0.093s0.286,0.153,0.4,0.275c0.113,0.122,0.203,0.27,0.268,0.447
	c0.066,0.177,0.098,0.38,0.098,0.609c0,0.011-0.004,0.02-0.012,0.025c-0.008,0.006-0.017,0.009-0.027,0.009h-2.572
	c-0.002,0.031-0.004,0.063-0.005,0.091s-0.001,0.06-0.001,0.091c0,0.274,0.031,0.517,0.098,0.727
	c0.064,0.211,0.157,0.387,0.278,0.53c0.12,0.143,0.265,0.252,0.435,0.326c0.17,0.074,0.358,0.111,0.565,0.111
	c0.185,0,0.345-0.02,0.479-0.061c0.134-0.04,0.247-0.085,0.337-0.135c0.09-0.049,0.159-0.094,0.206-0.134
	c0.047-0.041,0.075-0.061,0.084-0.061s0.019,0.004,0.027,0.013L177.205,116.28z M177.225,114.707c0-0.214-0.03-0.403-0.091-0.568
	c-0.062-0.166-0.146-0.305-0.253-0.417c-0.105-0.113-0.231-0.198-0.376-0.257c-0.144-0.058-0.298-0.087-0.462-0.087
	c-0.197,0-0.376,0.031-0.534,0.094c-0.159,0.063-0.296,0.153-0.41,0.27c-0.115,0.117-0.206,0.257-0.275,0.42
	c-0.069,0.163-0.113,0.345-0.133,0.545H177.225z"/>
<rect x="178.328" y="111.812" fill="#FFFFFF" width="0.081" height="4.859"/>
<path fill="#4798C9" d="M193.13,93.943c-1.222,0.006-2.442,0-3.664,0c-28.71,0.001-57.42,0-86.13,0c-1.849,0-3.698,0.001-5.546,0
	c-0.105,0-0.212,0.006-0.317,0v-5.95c0.542-0.007,1.084-0.022,1.625-0.015c0.233,0.003,0.378-0.044,0.333-0.314
	c-0.056-0.327,0.089-0.416,0.406-0.408c0.758,0.018,0.76,0.003,0.76-0.749c0-0.212,0.017-0.426-0.005-0.637
	c-0.032-0.323,0.101-0.486,0.421-0.484c0.273,0.001,0.356-0.098,0.416-0.394c0.218-1.097,0.216-2.206,0.276-3.312
	c0.004-0.078-0.016-0.163,0.088-0.162c0.104,0,0.092,0.093,0.093,0.167c0.018,0.946,0.137,1.885,0.185,2.828
	c0.013,0.257,0.163,0.473,0.155,0.734c-0.004,0.143,0.157,0.105,0.257,0.113c0.52,0.042,0.524,0.047,0.525,0.571
	c0.001,0.318,0.013,0.638-0.003,0.956c-0.012,0.268,0.102,0.371,0.358,0.344c0.042-0.005,0.085-0.001,0.128-0.001
	c0.493,0.001,0.589-0.097,0.526-0.596c-0.019-0.141-0.045-0.232,0.132-0.283c0.107-0.031,0.075-0.163,0.078-0.255
	c0.014-0.637,0.029-1.274,0.035-1.911c0.003-0.174,0.021-0.363-0.19-0.462c-0.091-0.041-0.042-0.119,0.022-0.134
	c0.213-0.048,0.179-0.215,0.178-0.356c-0.01-1.027,0.012-2.053-0.027-3.081c-0.012-0.3-0.043-0.586-0.119-0.869
	c-0.06-0.227-0.01-0.356,0.234-0.372c0.297-0.019,0.376-0.173,0.363-0.46c-0.024-0.498-0.004-0.999-0.001-1.498
	c0.001-0.117-0.015-0.254,0.133-0.291c0.198-0.05,0.188-0.193,0.19-0.346c0.017-1.168,0.04-2.336,0.052-3.504
	c0.016-1.621,0.021-3.243,0.036-4.865c0.002-0.251,0.042-0.503,0.081-0.753c0.11,0.471,0.08,0.947,0.081,1.421
	c0,1.06-0.019,2.12-0.021,3.181c-0.004,1.493,0,2.987-0.001,4.481c0,0.172-0.019,0.338,0.211,0.4c0.147,0.04,0.111,0.188,0.111,0.3
	c0.002,0.51,0.011,1.021-0.01,1.53c-0.01,0.248,0.061,0.382,0.315,0.399c0.258,0.017,0.354,0.128,0.27,0.398
	c-0.24,0.764-0.106,1.557-0.143,2.336c-0.025,0.541-0.002,1.084-0.006,1.626c-0.002,0.171,0.013,0.322,0.302,0.365
	c-0.337,0.144-0.3,0.383-0.301,0.609c-0.002,0.584-0.007,1.169-0.005,1.753c0.001,0.16-0.056,0.35,0.187,0.413
	c0.079,0.021,0.03,0.105,0.029,0.165c-0.005,0.219-0.016,0.44,0.006,0.656c0.046,0.437,0.192,0.529,0.625,0.569
	c0.61,0.057,1.134,0.052,1.469-0.616c0.178-0.356,0.596-0.542,0.991-0.653c0.273-0.076,0.389-0.221,0.372-0.501
	c-0.014-0.217-0.003-0.436-0.003-0.654c0.036,0,0.072,0,0.108,0c0,0.241,0.006,0.482-0.002,0.723
	c-0.007,0.221,0.077,0.353,0.298,0.425c0.603,0.2,1.056,0.588,1.327,1.163c0.091,0.188,0.211,0.228,0.399,0.229
	c0.797,0.005,0.812,0.01,0.794-0.773c-0.051-2.379-0.043-4.758-0.056-7.137c-0.002-0.33,0.068-0.5,0.426-0.48
	c0.19,0.011,0.382-0.005,0.572-0.024c0.402-0.04,0.801,0.066,1.2-0.218c0.347-0.245,0.836-0.202,1.273-0.158
	c0.338,0.033,0.675,0.08,1.013,0.104c0.203,0.015,0.378,0.03,0.608-0.072c0.338-0.149,0.773-0.075,1.161-0.015
	c0.165,0.026,0.104,0.212,0.104,0.329c0.002,1.966-0.001,3.931-0.004,5.896c-0.001,0.946,0.003,1.891-0.012,2.837
	c-0.003,0.255,0.065,0.374,0.337,0.356c0.168-0.011,0.339,0.041,0.508,0.035c0.279-0.01,0.425,0.093,0.368,0.455
	c0.129-0.136,0.096-0.24,0.097-0.33c0.013-2.061,0.021-4.123,0.033-6.185c0.003-0.414,0.026-0.828,0.026-1.242
	c-0.001-0.204,0.072-0.291,0.278-0.278c0.181,0.012,0.363-0.01,0.543,0.005c0.25,0.02,0.337-0.077,0.332-0.329
	c-0.01-0.416,0.009-0.385,0.423-0.43c0.63-0.069,1.192,0.136,1.762,0.343c0.091,0.033,0.204,0.076,0.192,0.185
	c-0.04,0.376,0.16,0.707,0.16,1.084c-0.001,2.051,0.03,4.102,0.052,6.152c0.001,0.064,0.006,0.127,0.01,0.216
	c0.329-0.103,0.362-0.373,0.392-0.627c0.021-0.172,0.041-0.332,0.144-0.479c0.148-0.215-0.024-0.446,0.016-0.673
	c0.015-0.081-0.003-0.171,0.06-0.235c0.23-0.235,0.22-0.521,0.155-0.805c-0.022-0.103,0.014-0.156,0.069-0.222
	c0.098,0.072,0.116,0.141,0.071,0.265c-0.073,0.197-0.049,0.432,0.073,0.582c0.205,0.252,0.187,0.518,0.164,0.8
	c-0.01,0.117-0.014,0.234,0.065,0.335c0.007,0.008,0.018,0.017,0.018,0.026c0.005,0.873,0.88,1.313,1.056,2.104
	c0.021,0.093,0.058,0.158-0.043,0.21c-0.251,0.13-0.114,0.214,0.034,0.293c0.095,0.05,0.187,0.109,0.286,0.138
	c0.301,0.089,0.444,0.012,0.476-0.295c0.096-0.977,0.474-1.851,0.991-2.661c0.479-0.75,1.127-1.35,1.885-1.823
	c0.61-0.381,1.284-0.62,1.977-0.773c0.514-0.112,1.049-0.156,1.581-0.122c0.964,0.062,1.882,0.284,2.731,0.767
	c1.307,0.743,2.229,1.809,2.762,3.214c0.056,0.145,0.073,0.307,0.182,0.441c0.158-0.118,0.194-0.301,0.274-0.457
	c0.089-0.174,0.123-0.392,0.388-0.409c0.101-0.006,0.105-0.124,0.132-0.2c0.161-0.448,0.33-0.894,0.49-1.34
	c0.148-0.411,0.013-0.874-0.075-1.309c-0.012-0.059-0.08-0.118-0.071-0.168c0.082-0.512-0.181-0.997-0.114-1.504
	c0.047-0.352-0.103-0.642-0.261-0.931c-0.166-0.304-0.259-0.601-0.152-0.965c0.071-0.246,0.015-0.528,0.025-0.793
	c0.005-0.108-0.038-0.235,0.103-0.329c0.084,0.088,0.063,0.195,0.063,0.292c0,0.421-0.005,0.841-0.006,1.262
	c-0.001,0.242,0.481,0.954,0.692,1.029c0.124,0.044,0.157-0.02,0.14-0.127c-0.012-0.082-0.054-0.163-0.054-0.245
	c0-0.114,0.085-0.168,0.191-0.173c0.099-0.005,0.158,0.054,0.169,0.153c0.005,0.052-0.007,0.107,0.003,0.158
	c0.017,0.094-0.127,0.208,0.024,0.28c0.083,0.038,0.168,0.005,0.238-0.051c0.104-0.083,0.144-0.199,0.095-0.313
	c-0.087-0.203-0.078-0.413-0.088-0.624c-0.011-0.224,0.102-0.317,0.301-0.317c0.197-0.001,0.315,0.096,0.32,0.311
	c0.006,0.27-0.011,0.529-0.195,0.75c-0.222,0.267-0.248,0.622-0.282,0.927c-0.093,0.837-0.142,1.682-0.097,2.527
	c0.004,0.062,0.008,0.134,0.039,0.182c0.22,0.334,0.312,0.716,0.433,1.087c0.166,0.509,0.372,0.656,0.917,0.663
	c0.594,0.007,1.188,0.013,1.784,0.029c0.176,0.004,0.297-0.049,0.402-0.196c0.41-0.574,0.953-0.965,1.644-1.131
	c0.235-0.057,0.353-0.168,0.306-0.418c-0.013-0.073-0.025-0.153,0.058-0.197c0.436-0.229,0.415-0.616,0.351-1.015
	c-0.016-0.086-0.047-0.167,0.03-0.234c0.043-0.037,0.103-0.038,0.148-0.007c0.085,0.059,0.059,0.141,0.046,0.229
	c-0.061,0.401-0.107,0.799,0.339,1.041c0.111,0.061,0.044,0.212,0.129,0.312c0.159,0.186,0.328,0.323,0.569,0.4
	c0.534,0.17,0.935,0.535,1.28,0.963c0.041,0.049,0.075,0.103,0.115,0.152c0.123,0.15,0.293,0.124,0.442,0.087
	c0.15-0.036,0.121-0.192,0.106-0.298c-0.055-0.369,0.059-0.642,0.406-0.804c0.046-0.022,0.119-0.086,0.112-0.101
	c-0.153-0.352,0.275-0.568,0.2-0.917c-0.054-0.253-0.033-0.531-0.004-0.794c0.037-0.319-0.026-0.67,0.437-0.821
	c0.281-0.092,0.357-0.486,0.562-0.713c0.407-0.453,0.471-0.973,0.342-1.537c-0.056-0.246,0.022-0.426,0.205-0.594
	c0.255-0.234,0.279-0.915,0.046-1.142c-0.074-0.072-0.087-0.101-0.003-0.167c0.081-0.064,0.149-0.145,0.227-0.223
	c0.077,0.074,0.143,0.154,0.225,0.212c0.076,0.054,0.104,0.081,0.027,0.166c-0.213,0.234-0.278,0.898-0.06,1.086
	c0.325,0.279,0.303,0.601,0.232,0.95c-0.073,0.36-0.025,0.688,0.193,0.991c0.156,0.215,0.304,0.438,0.438,0.666
	c0.138,0.235,0.305,0.403,0.603,0.388c0.146-0.008,0.206,0.079,0.202,0.223c-0.003,0.081,0.012,0.163,0.02,0.245
	c0.028,0.001,0.057,0.001,0.085,0.002c0-0.189,0.022-0.383-0.005-0.568c-0.041-0.277,0.09-0.509,0.149-0.76
	c0.007-0.029,0.024-0.079,0.042-0.081c0.334-0.042,0.261-0.331,0.276-0.518c0.042-0.534,0.175-1.069,0.028-1.608
	c-0.045-0.164,0.002-0.311,0.118-0.442c0.268-0.3,0.295-0.722,0.072-1.053c-0.123-0.182,0.137-0.126,0.145-0.245
	c0.006-0.081,0.102-0.116,0.151-0.006c0.039,0.086,0.256,0.117,0.146,0.221c-0.266,0.249-0.079,0.535-0.158,0.82
	c0.685-0.38,0.912-0.873,0.744-1.553c-0.005-0.021-0.001-0.052-0.015-0.061c-0.324-0.247-0.053-0.382,0.105-0.546
	c0.058,0.054,0.108,0.118,0.175,0.159c0.165,0.105,0.202,0.196-0.006,0.29c-0.047,0.021-0.093,0.046-0.093,0.114
	c-0.002,0.618-0.056,1.256,0.706,1.562c0.005-0.281,0.17-0.587-0.159-0.824c0.095-0.089,0.186-0.173,0.275-0.256
	c0.148,0.131,0.259,0.19,0.114,0.463c-0.117,0.223-0.18,0.642,0.139,0.905c0.146,0.12,0.174,0.293,0.128,0.467
	c-0.168,0.634,0.055,1.266,0.006,1.899c-0.009,0.098,0.033,0.165,0.146,0.162c0.097-0.003,0.138-0.066,0.126-0.148
	c-0.041-0.271,0.155-0.395,0.323-0.541c0.274-0.239,0.595-0.43,0.739-0.802c0.046-0.121,0.09-0.231,0.09-0.359
	c-0.002-0.457,0.011-0.915-0.006-1.371c-0.011-0.249,0.097-0.311,0.319-0.304c0.328,0.011,0.382-0.066,0.303-0.392
	c-0.025-0.103-0.071-0.201-0.095-0.304c-0.041-0.188,0.002-0.356,0.133-0.503c0.325-0.37,0.354-0.853,0.074-1.247
	c-0.037-0.052-0.04-0.13,0.015-0.124c0.146,0.016,0.153-0.234,0.304-0.154c0.087,0.047,0.152,0.135,0.228,0.205
	c-0.193,0.183-0.299,0.897-0.163,1.11c0.05,0.079,0.118,0.182,0.226,0.125c0.187-0.101,0.44-0.142,0.46-0.428
	c0.015-0.2,0.041-0.423,0.006-0.594c-0.06-0.29,0.006-0.464,0.223-0.623c0.036-0.027,0.017-0.105,0.069-0.119
	c0.392,0.287,0.349,0.7,0.343,1.108c-0.003,0.163-0.051,0.412,0.133,0.449c0.214,0.044,0.335-0.182,0.424-0.364
	c0.069-0.147,0.093-0.315,0.056-0.469c-0.108-0.449,0.076-0.834,0.248-1.242c0.153,0.42,0.346,0.809,0.255,1.276
	c-0.063,0.319,0.042,0.606,0.389,0.835c0.019-0.426-0.071-0.843,0.231-1.188c0.145,0.298,0.263,0.585,0.204,0.925
	c-0.051,0.294,0.039,0.544,0.299,0.72c0.109,0.073,0.198,0.191,0.197,0.315c-0.004,0.407,0.229,0.781,0.149,1.198
	c-0.017,0.088-0.052,0.252,0.104,0.253c0.156,0,0.107-0.161,0.104-0.253c-0.021-0.483,0.026-0.912,0.456-1.254
	c0.165-0.131,0.068-0.478,0.235-0.681c0.032-0.038,0.048-0.089,0.072-0.136c0.428,0.293,0.33,0.892,0.766,1.238
	c0-0.37,0.01-0.686-0.004-1c-0.011-0.24-0.052-0.472,0.215-0.619c0.114-0.063,0.072-0.183,0.036-0.287
	c-0.129-0.375-0.025-0.681,0.264-0.944c0.254-0.232,0.392-0.523,0.389-0.874c-0.002-0.317-0.006-0.634-0.003-0.952
	c0.003-0.295,0.333-0.42,0.353-0.717c0.097,0.188,0.157,0.367,0.307,0.497c0.067,0.058,0.07,0.151,0.069,0.238
	c-0.004,0.339-0.018,0.678-0.006,1.016c0.012,0.321,0.155,0.591,0.394,0.806c0.279,0.251,0.396,0.549,0.256,0.912
	c-0.053,0.136-0.062,0.259,0.067,0.336c0.204,0.123,0.214,0.29,0.196,0.504c-0.025,0.314-0.006,0.632-0.006,0.951
	c0.415-0.048,0.22-0.408,0.329-0.606c0.116-0.215,0.435-0.218,0.446-0.514c0.108,0.224,0.313,0.39,0.251,0.661
	c-0.02,0.09,0.02,0.166,0.103,0.215c0.209,0.123,0.338,0.313,0.418,0.531c0.1-0.011,0.137-0.071,0.126-0.134
	c-0.06-0.34,0.058-0.595,0.333-0.801c0.164-0.122,0.206-0.313,0.187-0.516c-0.032-0.347-0.02-0.687,0.231-1.023
	c0.025,0.249,0.256,0.403,0.197,0.683c-0.03,0.143-0.008,0.296-0.01,0.444c-0.003,0.188,0.063,0.191,0.205,0.096
	c0.305-0.203,0.431-0.474,0.404-0.84c-0.023-0.326-0.118-0.67,0.153-0.958c0.067-0.072-0.007-0.21,0.104-0.311
	c0.134,0.386,0.366,0.721,0.251,1.16c-0.065,0.248-0.021,0.509,0.166,0.717c0.07,0.077,0.14,0.192,0.258,0.148
	c0.103-0.037,0.086-0.161,0.091-0.254c0.005-0.106-0.006-0.213,0-0.319c0.015-0.347-0.063-0.726,0.361-0.923
	c0.364,0.22,0.3,0.628,0.287,1.012c-0.01,0.306,0.024,0.55,0.372,0.682c0.238,0.091,0.303,0.329,0.239,0.592
	c-0.082,0.336,0.251,0.74,0.598,0.74c0.722-0.002,0.723-0.002,0.722,0.719c0,0.372,0.009,0.744-0.005,1.116
	c-0.006,0.189,0.052,0.325,0.205,0.433c0.174,0.122,0.335,0.262,0.507,0.387c0.292,0.21,0.493,0.46,0.451,0.849
	c-0.032,0.298,0.203,0.228,0.368,0.257c0.207,0.036,0.289-0.061,0.311-0.256c0.102-0.935,0.158-1.87-0.002-2.805
	c-0.027-0.157,0.015-0.27,0.142-0.357c0.229-0.158,0.21-0.344,0.059-0.543c-0.297-0.393-0.29-0.527,0.07-0.858
	c0.135-0.124,0.235-0.284,0.2-0.446c-0.051-0.246,0.116-0.471,0.02-0.714c-0.037-0.091,0.037-0.173,0.129-0.185
	c0.115-0.015,0.199,0.078,0.176,0.174c-0.057,0.23,0.076,0.436,0.048,0.66c-0.021,0.163,0.03,0.32,0.135,0.447
	c0.092,0.112,0.198,0.202,0.249-0.034c0.035-0.166,0.139-0.284,0.271-0.379c0.203-0.144,0.254-0.352,0.265-0.585
	c0.015-0.356-0.016-0.713,0.127-1.061c0.106-0.262-0.125-0.562,0.049-0.841c0.073,0.13,0.059,0.262,0.049,0.399
	c-0.016,0.218,0.012,0.422,0.08,0.644c0.066,0.217,0.082,0.48,0.083,0.726c0.001,0.306,0.047,0.586,0.327,0.784
	c0.302,0.215,0.291,0.512,0.132,0.855c0.149-0.04,0.169-0.139,0.209-0.212c0.178-0.32,0.409-0.592,0.695-0.823
	c0.105-0.086,0.342-0.099,0.217-0.363c-0.034-0.073,0.168-0.124,0.276-0.165c0.281-0.106,0.316-0.235,0.128-0.474
	c-0.054-0.066-0.118-0.121-0.176-0.184c-0.389-0.425-0.357-0.998,0.11-1.334c0.466-0.336,0.524-0.792,0.464-1.297
	c-0.014-0.109-0.035-0.213,0.023-0.307c0.116-0.186,0.137-0.367,0.027-0.566c-0.039-0.074-0.023-0.17,0.029-0.243
	c0.232-0.327,0.223-0.66,0.035-1.002c-0.018-0.033-0.032-0.094-0.015-0.117c0.122-0.166,0.11-0.371,0.156-0.557
	c0.322,0.39,0.026,0.797,0.061,1.192c0.013,0.161,0.002,0.314,0.141,0.435c0.072,0.063,0.111,0.161,0.093,0.261
	c-0.103,0.549,0.073,1.08,0.116,1.619c0.02,0.231,0.184,0.415,0.384,0.564c0.561,0.418,0.593,0.957,0.104,1.465
	c-0.287,0.298-0.257,0.429,0.13,0.592c0.112,0.047,0.304,0.046,0.175,0.271c-0.044,0.078,0.076,0.107,0.132,0.148
	c0.271,0.193,0.507,0.419,0.696,0.694c0.162,0.236,0.281,0.222,0.419-0.03c0.135-0.246,0.083-0.527,0.097-0.779
	c0.01-0.202,0.08-0.352,0.144-0.538c0.177,0.287,0.138,0.604,0.162,0.903c0.021,0.265,0.065,0.49,0.287,0.674
	c0.233,0.194,0.232,0.446,0.044,0.677c-0.18,0.222-0.192,0.402,0.044,0.597c0.233,0.194,0.144,0.477,0.125,0.721
	c-0.052,0.643-0.122,1.283,0.078,1.916c0.026,0.085-0.011,0.188-0.011,0.283c0,0.231,0.115,0.302,0.344,0.293
	c0.24-0.009,0.223-0.154,0.244-0.319c0.053-0.416,0.116-0.827,0.123-1.25c0.009-0.532-0.079-1.056-0.086-1.586
	c-0.003-0.173,0.032-0.301,0.18-0.41c0.214-0.158,0.193-0.357,0.047-0.556c-0.309-0.419-0.301-0.568,0.074-0.919
	c0.133-0.125,0.201-0.274,0.212-0.448c0.022-0.391,0.015-0.78,0.134-1.163c0.076-0.243-0.145-0.514,0.038-0.752
	c0.097,0.21,0.089,0.209,0.067,0.402c-0.023,0.199-0.011,0.384,0.063,0.587c0.079,0.224,0.061,0.489,0.059,0.735
	c-0.002,0.28,0.063,0.512,0.282,0.71c0.312,0.28,0.315,0.521,0.032,0.857c-0.148,0.176-0.188,0.378-0.012,0.504
	c0.365,0.262,0.279,0.618,0.25,0.955c-0.063,0.706-0.142,1.406,0.069,2.104c0.044,0.147-0.007,0.32,0.021,0.474
	c0.049,0.264,0.073,0.521,0.214,0.779c0.173,0.319,0.052,0.704-0.046,1.05c-0.213,0.755-0.087,1.516-0.06,2.275
	c0.006,0.147,0.134,0.172,0.262,0.171c0.445-0.001,0.892-0.005,1.339,0.002c0.184,0.003,0.252-0.082,0.237-0.251
	c-0.023-0.245,0.067-0.5-0.133-0.728c-0.127-0.146,0.067-0.165,0.149-0.188c0.234-0.065,0.313-0.178,0.206-0.418
	c-0.112-0.249,0.019-0.416,0.221-0.562c0.476-0.342,0.535-0.57,0.324-1.124c-0.004-0.01-0.017-0.025-0.015-0.026
	c0.271-0.271-0.106-0.736,0.297-0.973c0.248-0.146,0.15-0.461,0.269-0.673c0.121,0.031,0.112,0.119,0.105,0.185
	c-0.025,0.228,0.082,0.384,0.25,0.517c0.168,0.134,0.231,0.3,0.132,0.506c-0.013,0.029-0.044,0.07-0.034,0.086
	c0.206,0.363,0,0.739,0.041,1.107c0.016,0.142,0.139,0.184,0.234,0.239c0.34,0.197,0.593,0.404,0.378,0.862
	c-0.095,0.203,0.146,0.217,0.271,0.261c0.173,0.059,0.292,0.108,0.088,0.281c-0.106,0.092-0.099,0.23-0.099,0.357
	c0,0.192,0.028,0.385,0.005,0.573c-0.032,0.26,0.043,0.433,0.295,0.522c0.171,0.06,0.174,0.146,0.136,0.335
	c-0.095,0.478-0.023,0.972-0.029,1.46c-0.002,0.156,0.132,0.137,0.23,0.158V93.943z M132.742,88.452
	c-0.169-0.086-0.302,0.155-0.385-0.013c-0.096-0.191,0.148-0.185,0.227-0.279c0.041-0.049,0.094-0.087,0.147-0.123
	c0.184-0.125,0.368-0.053,0.343,0.163c-0.034,0.287,0.103,0.467,0.254,0.669c0.091,0.122,0.204,0.282,0.137,0.437
	c-0.188,0.437-0.069,0.648,0.392,0.649c0.085,0,0.17,0,0.255,0c0.609-0.002,0.827-0.211,0.837-0.803
	c0.002-0.096,0-0.192,0.007-0.287c0.016-0.194-0.036-0.466,0.246-0.471c0.265-0.004,0.225,0.26,0.239,0.441
	c0.025,0.32,0.106,0.55,0.503,0.58c0.378,0.029,0.749,0.145,1.125,0.214c0.176,0.033,0.35,0.081,0.535,0.071
	c0.262-0.015,0.386-0.087,0.31-0.394c-0.174-0.696-0.402-1.37-0.801-1.966c-0.377-0.564-0.782-1.118-1.372-1.489
	c-0.979-0.614-2.04-0.869-3.19-0.702c-0.558,0.081-1.088,0.245-1.595,0.512c-0.695,0.365-1.163,0.945-1.597,1.563
	c-0.53,0.754-0.82,1.6-0.929,2.511c-0.017,0.145,0.032,0.223,0.188,0.223c1.179-0.003,2.359-0.002,3.539-0.005
	c0.204-0.001,0.284-0.131,0.192-0.294c-0.105-0.186-0.055-0.321,0.052-0.466c0.099-0.134,0.08-0.233-0.082-0.296
	c-0.06-0.023-0.12-0.051-0.081-0.161C132.499,88.829,132.548,88.561,132.742,88.452 M178.897,79.313
	c-0.056,0.193-0.118,0.344-0.246,0.466c-0.146,0.14-0.124,0.285,0.008,0.438C179.167,79.598,179.167,79.598,178.897,79.313"/>
<path fill="none" stroke="#FFFFFF" stroke-width="0.25" stroke-miterlimit="10" d="M193.13,93.943c-1.222,0.006-2.442,0-3.664,0
	c-28.71,0.001-57.42,0-86.13,0c-1.849,0-3.698,0.001-5.546,0c-0.105,0-0.212,0.006-0.317,0v-5.95
	c0.542-0.007,1.084-0.022,1.625-0.015c0.233,0.003,0.378-0.044,0.333-0.314c-0.056-0.327,0.089-0.416,0.406-0.408
	c0.758,0.018,0.76,0.003,0.76-0.749c0-0.212,0.017-0.426-0.005-0.637c-0.032-0.323,0.101-0.486,0.421-0.484
	c0.273,0.001,0.356-0.098,0.416-0.394c0.218-1.097,0.216-2.206,0.276-3.312c0.004-0.078-0.016-0.163,0.088-0.162
	c0.104,0,0.092,0.093,0.093,0.167c0.018,0.946,0.137,1.885,0.185,2.828c0.013,0.257,0.163,0.473,0.155,0.734
	c-0.004,0.143,0.157,0.105,0.257,0.113c0.52,0.042,0.524,0.047,0.525,0.571c0.001,0.318,0.013,0.638-0.003,0.956
	c-0.012,0.268,0.102,0.371,0.358,0.344c0.042-0.005,0.085-0.001,0.128-0.001c0.493,0.001,0.589-0.097,0.526-0.596
	c-0.019-0.141-0.045-0.232,0.132-0.283c0.107-0.031,0.075-0.163,0.078-0.255c0.014-0.637,0.029-1.274,0.035-1.911
	c0.003-0.174,0.021-0.363-0.19-0.462c-0.091-0.041-0.042-0.119,0.022-0.134c0.213-0.048,0.179-0.215,0.178-0.356
	c-0.01-1.027,0.012-2.053-0.027-3.081c-0.012-0.3-0.043-0.586-0.119-0.869c-0.06-0.227-0.01-0.356,0.234-0.372
	c0.297-0.019,0.376-0.173,0.363-0.46c-0.024-0.498-0.004-0.999-0.001-1.498c0.001-0.117-0.015-0.254,0.133-0.291
	c0.198-0.05,0.188-0.193,0.19-0.346c0.017-1.168,0.04-2.336,0.052-3.504c0.016-1.621,0.021-3.243,0.036-4.865
	c0.002-0.251,0.042-0.503,0.081-0.753c0.11,0.471,0.08,0.947,0.081,1.421c0,1.06-0.019,2.12-0.021,3.181
	c-0.004,1.493,0,2.987-0.001,4.481c0,0.172-0.019,0.338,0.211,0.4c0.147,0.04,0.111,0.188,0.111,0.3
	c0.002,0.51,0.011,1.021-0.01,1.53c-0.01,0.248,0.061,0.382,0.315,0.399c0.258,0.017,0.354,0.128,0.27,0.398
	c-0.24,0.764-0.106,1.557-0.143,2.336c-0.025,0.541-0.002,1.084-0.006,1.626c-0.002,0.171,0.013,0.322,0.302,0.365
	c-0.337,0.144-0.3,0.383-0.301,0.609c-0.002,0.584-0.007,1.169-0.005,1.753c0.001,0.16-0.056,0.35,0.187,0.413
	c0.079,0.021,0.03,0.105,0.029,0.165c-0.005,0.219-0.016,0.44,0.006,0.656c0.046,0.437,0.192,0.529,0.625,0.569
	c0.61,0.057,1.134,0.052,1.469-0.616c0.178-0.356,0.596-0.542,0.991-0.653c0.273-0.076,0.389-0.221,0.372-0.501
	c-0.014-0.217-0.003-0.436-0.003-0.654c0.036,0,0.072,0,0.108,0c0,0.241,0.006,0.482-0.002,0.723
	c-0.007,0.221,0.077,0.353,0.298,0.425c0.603,0.2,1.056,0.588,1.327,1.163c0.091,0.188,0.211,0.228,0.399,0.229
	c0.797,0.005,0.812,0.01,0.794-0.773c-0.051-2.379-0.043-4.758-0.056-7.137c-0.002-0.33,0.068-0.5,0.426-0.48
	c0.19,0.011,0.382-0.005,0.572-0.024c0.402-0.04,0.801,0.066,1.2-0.218c0.347-0.245,0.836-0.202,1.273-0.158
	c0.338,0.033,0.675,0.08,1.013,0.104c0.203,0.015,0.378,0.03,0.608-0.072c0.338-0.149,0.773-0.075,1.161-0.015
	c0.165,0.026,0.104,0.212,0.104,0.329c0.002,1.966-0.001,3.931-0.004,5.896c-0.001,0.946,0.003,1.891-0.012,2.837
	c-0.003,0.255,0.065,0.374,0.337,0.356c0.168-0.011,0.339,0.041,0.508,0.035c0.279-0.01,0.425,0.093,0.368,0.455
	c0.129-0.136,0.096-0.24,0.097-0.33c0.013-2.061,0.021-4.123,0.033-6.185c0.003-0.414,0.026-0.828,0.026-1.242
	c-0.001-0.204,0.072-0.291,0.278-0.278c0.181,0.012,0.363-0.01,0.543,0.005c0.25,0.02,0.337-0.077,0.332-0.329
	c-0.01-0.416,0.009-0.385,0.423-0.43c0.63-0.069,1.192,0.136,1.762,0.343c0.091,0.033,0.204,0.076,0.192,0.185
	c-0.04,0.376,0.16,0.707,0.16,1.084c-0.001,2.051,0.03,4.102,0.052,6.152c0.001,0.064,0.006,0.127,0.01,0.216
	c0.329-0.103,0.362-0.373,0.392-0.627c0.021-0.172,0.041-0.332,0.144-0.479c0.148-0.215-0.024-0.446,0.016-0.673
	c0.015-0.081-0.003-0.171,0.06-0.235c0.23-0.235,0.22-0.521,0.155-0.805c-0.022-0.103,0.014-0.156,0.069-0.222
	c0.098,0.072,0.116,0.141,0.071,0.265c-0.073,0.197-0.049,0.432,0.073,0.582c0.205,0.252,0.187,0.518,0.164,0.8
	c-0.01,0.117-0.014,0.234,0.065,0.335c0.007,0.008,0.018,0.017,0.018,0.026c0.005,0.873,0.88,1.313,1.056,2.104
	c0.021,0.093,0.058,0.158-0.043,0.21c-0.251,0.13-0.114,0.214,0.034,0.293c0.095,0.05,0.187,0.109,0.286,0.138
	c0.301,0.089,0.444,0.012,0.476-0.295c0.096-0.977,0.474-1.851,0.991-2.661c0.479-0.75,1.127-1.35,1.885-1.823
	c0.61-0.381,1.284-0.62,1.977-0.773c0.514-0.112,1.049-0.156,1.581-0.122c0.964,0.062,1.882,0.284,2.731,0.767
	c1.307,0.743,2.229,1.809,2.762,3.214c0.056,0.145,0.073,0.307,0.182,0.441c0.158-0.118,0.194-0.301,0.274-0.457
	c0.089-0.174,0.123-0.392,0.388-0.409c0.101-0.006,0.105-0.124,0.132-0.2c0.161-0.448,0.33-0.894,0.49-1.34
	c0.148-0.411,0.013-0.874-0.075-1.309c-0.012-0.059-0.08-0.118-0.071-0.168c0.082-0.512-0.181-0.997-0.114-1.504
	c0.047-0.352-0.103-0.642-0.261-0.931c-0.166-0.304-0.259-0.601-0.152-0.965c0.071-0.246,0.015-0.528,0.025-0.793
	c0.005-0.108-0.038-0.235,0.103-0.329c0.084,0.088,0.063,0.195,0.063,0.292c0,0.421-0.005,0.841-0.006,1.262
	c-0.001,0.242,0.481,0.954,0.692,1.029c0.124,0.044,0.157-0.02,0.14-0.127c-0.012-0.082-0.054-0.163-0.054-0.245
	c0-0.114,0.085-0.168,0.191-0.173c0.099-0.005,0.158,0.054,0.169,0.153c0.005,0.052-0.007,0.107,0.003,0.158
	c0.017,0.094-0.127,0.208,0.024,0.28c0.083,0.038,0.168,0.005,0.238-0.051c0.104-0.083,0.144-0.199,0.095-0.313
	c-0.087-0.203-0.078-0.413-0.088-0.624c-0.011-0.224,0.102-0.317,0.301-0.317c0.197-0.001,0.315,0.096,0.32,0.311
	c0.006,0.27-0.011,0.529-0.195,0.75c-0.222,0.267-0.248,0.622-0.282,0.927c-0.093,0.837-0.142,1.682-0.097,2.527
	c0.004,0.062,0.008,0.134,0.039,0.182c0.22,0.334,0.312,0.716,0.433,1.087c0.166,0.509,0.372,0.656,0.917,0.663
	c0.594,0.007,1.188,0.013,1.784,0.029c0.176,0.004,0.297-0.049,0.402-0.196c0.41-0.574,0.953-0.965,1.644-1.131
	c0.235-0.057,0.353-0.168,0.306-0.418c-0.013-0.073-0.025-0.153,0.058-0.197c0.436-0.229,0.415-0.616,0.351-1.015
	c-0.016-0.086-0.047-0.167,0.03-0.234c0.043-0.037,0.103-0.038,0.148-0.007c0.085,0.059,0.059,0.141,0.046,0.229
	c-0.061,0.401-0.107,0.799,0.339,1.041c0.111,0.061,0.044,0.212,0.129,0.312c0.159,0.186,0.328,0.323,0.569,0.4
	c0.534,0.17,0.935,0.535,1.28,0.963c0.041,0.049,0.075,0.103,0.115,0.152c0.123,0.15,0.293,0.124,0.442,0.087
	c0.15-0.036,0.121-0.192,0.106-0.298c-0.055-0.369,0.059-0.642,0.406-0.804c0.046-0.022,0.119-0.086,0.112-0.101
	c-0.153-0.352,0.275-0.568,0.2-0.917c-0.054-0.253-0.033-0.531-0.004-0.794c0.037-0.319-0.026-0.67,0.437-0.821
	c0.281-0.092,0.357-0.486,0.562-0.713c0.407-0.453,0.471-0.973,0.342-1.537c-0.056-0.246,0.022-0.426,0.205-0.594
	c0.255-0.234,0.279-0.915,0.046-1.142c-0.074-0.072-0.087-0.101-0.003-0.167c0.081-0.064,0.149-0.145,0.227-0.223
	c0.077,0.074,0.143,0.154,0.225,0.212c0.076,0.054,0.104,0.081,0.027,0.166c-0.213,0.234-0.278,0.898-0.06,1.086
	c0.325,0.279,0.303,0.601,0.232,0.95c-0.073,0.36-0.025,0.688,0.193,0.991c0.156,0.215,0.304,0.438,0.438,0.666
	c0.138,0.235,0.305,0.403,0.603,0.388c0.146-0.008,0.206,0.079,0.202,0.223c-0.003,0.081,0.012,0.163,0.02,0.245
	c0.028,0.001,0.057,0.001,0.085,0.002c0-0.189,0.022-0.383-0.005-0.568c-0.041-0.277,0.09-0.509,0.149-0.76
	c0.007-0.029,0.024-0.079,0.042-0.081c0.334-0.042,0.261-0.331,0.276-0.518c0.042-0.534,0.175-1.069,0.028-1.608
	c-0.045-0.164,0.002-0.311,0.118-0.442c0.268-0.3,0.295-0.722,0.072-1.053c-0.123-0.182,0.137-0.126,0.145-0.245
	c0.006-0.081,0.102-0.116,0.151-0.006c0.039,0.086,0.256,0.117,0.146,0.221c-0.266,0.249-0.079,0.535-0.158,0.82
	c0.685-0.38,0.912-0.873,0.744-1.553c-0.005-0.021-0.001-0.052-0.015-0.061c-0.324-0.247-0.053-0.382,0.105-0.546
	c0.058,0.054,0.108,0.118,0.175,0.159c0.165,0.105,0.202,0.196-0.006,0.29c-0.047,0.021-0.093,0.046-0.093,0.114
	c-0.002,0.618-0.056,1.256,0.706,1.562c0.005-0.281,0.17-0.587-0.159-0.824c0.095-0.089,0.186-0.173,0.275-0.256
	c0.148,0.131,0.259,0.19,0.114,0.463c-0.117,0.223-0.18,0.642,0.139,0.905c0.146,0.12,0.174,0.293,0.128,0.467
	c-0.168,0.634,0.055,1.266,0.006,1.899c-0.009,0.098,0.033,0.165,0.146,0.162c0.097-0.003,0.138-0.066,0.126-0.148
	c-0.041-0.271,0.155-0.395,0.323-0.541c0.274-0.239,0.595-0.43,0.739-0.802c0.046-0.121,0.09-0.231,0.09-0.359
	c-0.002-0.457,0.011-0.915-0.006-1.371c-0.011-0.249,0.097-0.311,0.319-0.304c0.328,0.011,0.382-0.066,0.303-0.392
	c-0.025-0.103-0.071-0.201-0.095-0.304c-0.041-0.188,0.002-0.356,0.133-0.503c0.325-0.37,0.354-0.853,0.074-1.247
	c-0.037-0.052-0.04-0.13,0.015-0.124c0.146,0.016,0.153-0.234,0.304-0.154c0.087,0.047,0.152,0.135,0.228,0.205
	c-0.193,0.183-0.299,0.897-0.163,1.11c0.05,0.079,0.118,0.182,0.226,0.125c0.187-0.101,0.44-0.142,0.46-0.428
	c0.015-0.2,0.041-0.423,0.006-0.594c-0.06-0.29,0.006-0.464,0.223-0.623c0.036-0.027,0.017-0.105,0.069-0.119
	c0.392,0.287,0.349,0.7,0.343,1.108c-0.003,0.163-0.051,0.412,0.133,0.449c0.214,0.044,0.335-0.182,0.424-0.364
	c0.069-0.147,0.093-0.315,0.056-0.469c-0.108-0.449,0.076-0.834,0.248-1.242c0.153,0.42,0.346,0.809,0.255,1.276
	c-0.063,0.319,0.042,0.606,0.389,0.835c0.019-0.426-0.071-0.843,0.231-1.188c0.145,0.298,0.263,0.585,0.204,0.925
	c-0.051,0.294,0.039,0.544,0.299,0.72c0.109,0.073,0.198,0.191,0.197,0.315c-0.004,0.407,0.229,0.781,0.149,1.198
	c-0.017,0.088-0.052,0.252,0.104,0.253c0.156,0,0.107-0.161,0.104-0.253c-0.021-0.483,0.026-0.912,0.456-1.254
	c0.165-0.131,0.068-0.478,0.235-0.681c0.032-0.038,0.048-0.089,0.072-0.136c0.428,0.293,0.33,0.892,0.766,1.238
	c0-0.37,0.01-0.686-0.004-1c-0.011-0.24-0.052-0.472,0.215-0.619c0.114-0.063,0.072-0.183,0.036-0.287
	c-0.129-0.375-0.025-0.681,0.264-0.944c0.254-0.232,0.392-0.523,0.389-0.874c-0.002-0.317-0.006-0.634-0.003-0.952
	c0.003-0.295,0.333-0.42,0.353-0.717c0.097,0.188,0.157,0.367,0.307,0.497c0.067,0.058,0.07,0.151,0.069,0.238
	c-0.004,0.339-0.018,0.678-0.006,1.016c0.012,0.321,0.155,0.591,0.394,0.806c0.279,0.251,0.396,0.549,0.256,0.912
	c-0.053,0.136-0.062,0.259,0.067,0.336c0.204,0.123,0.214,0.29,0.196,0.504c-0.025,0.314-0.006,0.632-0.006,0.951
	c0.415-0.048,0.22-0.408,0.329-0.606c0.116-0.215,0.435-0.218,0.446-0.514c0.108,0.224,0.313,0.39,0.251,0.661
	c-0.02,0.09,0.02,0.166,0.103,0.215c0.209,0.123,0.338,0.313,0.418,0.531c0.1-0.011,0.137-0.071,0.126-0.134
	c-0.06-0.34,0.058-0.595,0.333-0.801c0.164-0.122,0.206-0.313,0.187-0.516c-0.032-0.347-0.02-0.687,0.231-1.023
	c0.025,0.249,0.256,0.403,0.197,0.683c-0.03,0.143-0.008,0.296-0.01,0.444c-0.003,0.188,0.063,0.191,0.205,0.096
	c0.305-0.203,0.431-0.474,0.404-0.84c-0.023-0.326-0.118-0.67,0.153-0.958c0.067-0.072-0.007-0.21,0.104-0.311
	c0.134,0.386,0.366,0.721,0.251,1.16c-0.065,0.248-0.021,0.509,0.166,0.717c0.07,0.077,0.14,0.192,0.258,0.148
	c0.103-0.037,0.086-0.161,0.091-0.254c0.005-0.106-0.006-0.213,0-0.319c0.015-0.347-0.063-0.726,0.361-0.923
	c0.364,0.22,0.3,0.628,0.287,1.012c-0.01,0.306,0.024,0.55,0.372,0.682c0.238,0.091,0.303,0.329,0.239,0.592
	c-0.082,0.336,0.251,0.74,0.598,0.74c0.722-0.002,0.723-0.002,0.722,0.719c0,0.372,0.009,0.744-0.005,1.116
	c-0.006,0.189,0.052,0.325,0.205,0.433c0.174,0.122,0.335,0.262,0.507,0.387c0.292,0.21,0.493,0.46,0.451,0.849
	c-0.032,0.298,0.203,0.228,0.368,0.257c0.207,0.036,0.289-0.061,0.311-0.256c0.102-0.935,0.158-1.87-0.002-2.805
	c-0.027-0.157,0.015-0.27,0.142-0.357c0.229-0.158,0.21-0.344,0.059-0.543c-0.297-0.393-0.29-0.527,0.07-0.858
	c0.135-0.124,0.235-0.284,0.2-0.446c-0.051-0.246,0.116-0.471,0.02-0.714c-0.037-0.091,0.037-0.173,0.129-0.185
	c0.115-0.015,0.199,0.078,0.176,0.174c-0.057,0.23,0.076,0.436,0.048,0.66c-0.021,0.163,0.03,0.32,0.135,0.447
	c0.092,0.112,0.198,0.202,0.249-0.034c0.035-0.166,0.139-0.284,0.271-0.379c0.203-0.144,0.254-0.352,0.265-0.585
	c0.015-0.356-0.016-0.713,0.127-1.061c0.106-0.262-0.125-0.562,0.049-0.841c0.073,0.13,0.059,0.262,0.049,0.399
	c-0.016,0.218,0.012,0.422,0.08,0.644c0.066,0.217,0.082,0.48,0.083,0.726c0.001,0.306,0.047,0.586,0.327,0.784
	c0.302,0.215,0.291,0.512,0.132,0.855c0.149-0.04,0.169-0.139,0.209-0.212c0.178-0.32,0.409-0.592,0.695-0.823
	c0.105-0.086,0.342-0.099,0.217-0.363c-0.034-0.073,0.168-0.124,0.276-0.165c0.281-0.106,0.316-0.235,0.128-0.474
	c-0.054-0.066-0.118-0.121-0.176-0.184c-0.389-0.425-0.357-0.998,0.11-1.334c0.466-0.336,0.524-0.792,0.464-1.297
	c-0.014-0.109-0.035-0.213,0.023-0.307c0.116-0.186,0.137-0.367,0.027-0.566c-0.039-0.074-0.023-0.17,0.029-0.243
	c0.232-0.327,0.223-0.66,0.035-1.002c-0.018-0.033-0.032-0.094-0.015-0.117c0.122-0.166,0.11-0.371,0.156-0.557
	c0.322,0.39,0.026,0.797,0.061,1.192c0.013,0.161,0.002,0.314,0.141,0.435c0.072,0.063,0.111,0.161,0.093,0.261
	c-0.103,0.549,0.073,1.08,0.116,1.619c0.02,0.231,0.184,0.415,0.384,0.564c0.561,0.418,0.593,0.957,0.104,1.465
	c-0.287,0.298-0.257,0.429,0.13,0.592c0.112,0.047,0.304,0.046,0.175,0.271c-0.044,0.078,0.076,0.107,0.132,0.148
	c0.271,0.193,0.507,0.419,0.696,0.694c0.162,0.236,0.281,0.222,0.419-0.03c0.135-0.246,0.083-0.527,0.097-0.779
	c0.01-0.202,0.08-0.352,0.144-0.538c0.177,0.287,0.138,0.604,0.162,0.903c0.021,0.265,0.065,0.49,0.287,0.674
	c0.233,0.194,0.232,0.446,0.044,0.677c-0.18,0.222-0.192,0.402,0.044,0.597c0.233,0.194,0.144,0.477,0.125,0.721
	c-0.052,0.643-0.122,1.283,0.078,1.916c0.026,0.085-0.011,0.188-0.011,0.283c0,0.231,0.115,0.302,0.344,0.293
	c0.24-0.009,0.223-0.154,0.244-0.319c0.053-0.416,0.116-0.827,0.123-1.25c0.009-0.532-0.079-1.056-0.086-1.586
	c-0.003-0.173,0.032-0.301,0.18-0.41c0.214-0.158,0.193-0.357,0.047-0.556c-0.309-0.419-0.301-0.568,0.074-0.919
	c0.133-0.125,0.201-0.274,0.212-0.448c0.022-0.391,0.015-0.78,0.134-1.163c0.076-0.243-0.145-0.514,0.038-0.752
	c0.097,0.21,0.089,0.209,0.067,0.402c-0.023,0.199-0.011,0.384,0.063,0.587c0.079,0.224,0.061,0.489,0.059,0.735
	c-0.002,0.28,0.063,0.512,0.282,0.71c0.312,0.28,0.315,0.521,0.032,0.857c-0.148,0.176-0.188,0.378-0.012,0.504
	c0.365,0.262,0.279,0.618,0.25,0.955c-0.063,0.706-0.142,1.406,0.069,2.104c0.044,0.147-0.007,0.32,0.021,0.474
	c0.049,0.264,0.073,0.521,0.214,0.779c0.173,0.319,0.052,0.704-0.046,1.05c-0.213,0.755-0.087,1.516-0.06,2.275
	c0.006,0.147,0.134,0.172,0.262,0.171c0.445-0.001,0.892-0.005,1.339,0.002c0.184,0.003,0.252-0.082,0.237-0.251
	c-0.023-0.245,0.067-0.5-0.133-0.728c-0.127-0.146,0.067-0.165,0.149-0.188c0.234-0.065,0.313-0.178,0.206-0.418
	c-0.112-0.249,0.019-0.416,0.221-0.562c0.476-0.342,0.535-0.57,0.324-1.124c-0.004-0.01-0.017-0.025-0.015-0.026
	c0.271-0.271-0.106-0.736,0.297-0.973c0.248-0.146,0.15-0.461,0.269-0.673c0.121,0.031,0.112,0.119,0.105,0.185
	c-0.025,0.228,0.082,0.384,0.25,0.517c0.168,0.134,0.231,0.3,0.132,0.506c-0.013,0.029-0.044,0.07-0.034,0.086
	c0.206,0.363,0,0.739,0.041,1.107c0.016,0.142,0.139,0.184,0.234,0.239c0.34,0.197,0.593,0.404,0.378,0.862
	c-0.095,0.203,0.146,0.217,0.271,0.261c0.173,0.059,0.292,0.108,0.088,0.281c-0.106,0.092-0.099,0.23-0.099,0.357
	c0,0.192,0.028,0.385,0.005,0.573c-0.032,0.26,0.043,0.433,0.295,0.522c0.171,0.06,0.174,0.146,0.136,0.335
	c-0.095,0.478-0.023,0.972-0.029,1.46c-0.002,0.156,0.132,0.137,0.23,0.158V93.943z M132.742,88.452
	c-0.169-0.086-0.302,0.155-0.385-0.013c-0.096-0.191,0.148-0.185,0.227-0.279c0.041-0.049,0.094-0.087,0.147-0.123
	c0.184-0.125,0.368-0.053,0.343,0.163c-0.034,0.287,0.103,0.467,0.254,0.669c0.091,0.122,0.204,0.282,0.137,0.437
	c-0.188,0.437-0.069,0.648,0.392,0.649c0.085,0,0.17,0,0.255,0c0.609-0.002,0.827-0.211,0.837-0.803
	c0.002-0.096,0-0.192,0.007-0.287c0.016-0.194-0.036-0.466,0.246-0.471c0.265-0.004,0.225,0.26,0.239,0.441
	c0.025,0.32,0.106,0.55,0.503,0.58c0.378,0.029,0.749,0.145,1.125,0.214c0.176,0.033,0.35,0.081,0.535,0.071
	c0.262-0.015,0.386-0.087,0.31-0.394c-0.174-0.696-0.402-1.37-0.801-1.966c-0.377-0.564-0.782-1.118-1.372-1.489
	c-0.979-0.614-2.04-0.869-3.19-0.702c-0.558,0.081-1.088,0.245-1.595,0.512c-0.695,0.365-1.163,0.945-1.597,1.563
	c-0.53,0.754-0.82,1.6-0.929,2.511c-0.017,0.145,0.032,0.223,0.188,0.223c1.179-0.003,2.359-0.002,3.539-0.005
	c0.204-0.001,0.284-0.131,0.192-0.294c-0.105-0.186-0.055-0.321,0.052-0.466c0.099-0.134,0.08-0.233-0.082-0.296
	c-0.06-0.023-0.12-0.051-0.081-0.161C132.499,88.829,132.548,88.561,132.742,88.452z M178.897,79.313
	c-0.056,0.193-0.118,0.344-0.246,0.466c-0.146,0.14-0.124,0.285,0.008,0.438C179.167,79.598,179.167,79.598,178.897,79.313z"/>
<path fill="#FFFFFF" d="M19.553,93.779c0.051,0,0.076,0.026,0.076,0.076v0.091h-6.651V93.87c0-0.025,0.007-0.046,0.022-0.064
	c0.016-0.018,0.028-0.032,0.038-0.042l3.827-3.888c0.309-0.318,0.602-0.629,0.881-0.934c0.278-0.303,0.523-0.612,0.733-0.926
	c0.21-0.313,0.375-0.638,0.497-0.972c0.121-0.334,0.182-0.691,0.182-1.07c0-0.461-0.078-0.857-0.235-1.188
	c-0.157-0.332-0.365-0.604-0.623-0.817c-0.258-0.212-0.552-0.369-0.88-0.47c-0.33-0.103-0.666-0.152-1.01-0.152
	c-0.396,0-0.758,0.06-1.09,0.182c-0.332,0.121-0.624,0.292-0.877,0.512c-0.253,0.221-0.462,0.483-0.626,0.786
	c-0.165,0.304-0.277,0.641-0.338,1.01c-0.015,0.081-0.056,0.122-0.122,0.122h-0.076c0.056-0.426,0.171-0.809,0.346-1.151
	c0.175-0.341,0.399-0.631,0.672-0.869c0.273-0.238,0.588-0.421,0.945-0.551c0.357-0.129,0.745-0.193,1.166-0.193
	c0.364,0,0.722,0.053,1.074,0.159c0.352,0.106,0.664,0.272,0.938,0.498c0.273,0.225,0.495,0.512,0.664,0.862
	c0.17,0.349,0.254,0.769,0.254,1.26c0,0.405-0.064,0.782-0.193,1.131c-0.129,0.35-0.303,0.684-0.52,1.002
	c-0.218,0.319-0.47,0.632-0.756,0.938c-0.286,0.307-0.586,0.619-0.9,0.938l-3.75,3.827c0.106-0.01,0.229-0.018,0.368-0.023
	c0.139-0.005,0.295-0.008,0.467-0.008H19.553z"/>
<path fill="#FFFFFF" d="M29.044,90.514v0.061c0,0.06-0.04,0.091-0.121,0.091h-2.126v3.28H26.63v-3.28h-5.285
	c-0.056,0-0.09-0.007-0.102-0.019c-0.013-0.013-0.024-0.032-0.034-0.057l-0.016-0.061l5.498-7.229h0.106v7.214H29.044z
	 M26.63,90.514v-6.606c0-0.05,0.001-0.099,0.004-0.144c0.002-0.046,0.006-0.094,0.011-0.145l-5.231,6.895H26.63z"/>
<path fill="#FFFFFF" d="M35.483,88.054c0.172-0.253,0.364-0.484,0.581-0.691c0.215-0.207,0.445-0.383,0.693-0.528
	c0.248-0.144,0.51-0.255,0.783-0.334c0.273-0.078,0.554-0.117,0.842-0.117c0.826,0,1.442,0.245,1.85,0.736s0.611,1.177,0.611,2.058
	v4.768h-0.183v-4.768c0-0.416-0.045-0.786-0.136-1.113c-0.092-0.326-0.232-0.604-0.422-0.831c-0.19-0.229-0.429-0.401-0.715-0.521
	c-0.284-0.119-0.621-0.179-1.006-0.179c-0.582,0-1.118,0.155-1.608,0.464c-0.491,0.308-0.921,0.736-1.291,1.283v5.664H35.3V83.012
	h0.183V88.054z"/>
<path fill="#FFFFFF" d="M46.333,86.383c0.521,0,0.984,0.093,1.389,0.277c0.405,0.186,0.746,0.445,1.022,0.779
	c0.275,0.334,0.484,0.737,0.626,1.211c0.142,0.473,0.212,0.998,0.212,1.575s-0.07,1.1-0.212,1.568s-0.351,0.869-0.626,1.203
	c-0.276,0.335-0.617,0.592-1.022,0.771c-0.404,0.18-0.867,0.27-1.389,0.27c-0.527,0-0.991-0.09-1.394-0.27
	c-0.402-0.179-0.741-0.436-1.018-0.771c-0.275-0.334-0.484-0.735-0.626-1.203s-0.213-0.991-0.213-1.568s0.071-1.102,0.213-1.575
	c0.142-0.474,0.351-0.877,0.626-1.211c0.276-0.334,0.615-0.594,1.018-0.779C45.341,86.477,45.805,86.383,46.333,86.383
	 M46.333,93.885c0.506,0,0.952-0.089,1.336-0.266c0.385-0.177,0.705-0.425,0.961-0.744c0.255-0.319,0.448-0.704,0.577-1.154
	c0.129-0.451,0.193-0.949,0.193-1.496s-0.064-1.046-0.193-1.499c-0.129-0.454-0.322-0.842-0.577-1.166
	c-0.256-0.324-0.576-0.576-0.961-0.755c-0.384-0.18-0.83-0.271-1.336-0.271c-0.512,0-0.958,0.09-1.34,0.271
	c-0.383,0.179-0.702,0.431-0.957,0.755c-0.256,0.324-0.448,0.712-0.577,1.166c-0.129,0.453-0.194,0.952-0.194,1.499
	s0.065,1.045,0.194,1.496c0.129,0.45,0.321,0.835,0.577,1.154c0.255,0.319,0.574,0.567,0.957,0.744
	C45.375,93.796,45.821,93.885,46.333,93.885"/>
<path fill="#FFFFFF" d="M57.373,86.505v7.441h-0.046c-0.071,0-0.106-0.04-0.106-0.122l-0.03-1.427
	c-0.178,0.253-0.372,0.482-0.585,0.69c-0.213,0.207-0.443,0.383-0.69,0.527c-0.248,0.145-0.51,0.256-0.782,0.335
	c-0.273,0.078-0.555,0.117-0.843,0.117c-0.83,0-1.447-0.245-1.853-0.736c-0.405-0.491-0.607-1.177-0.607-2.058v-4.769h0.182v4.769
	c0,0.415,0.046,0.786,0.137,1.112c0.091,0.327,0.232,0.604,0.422,0.832c0.19,0.228,0.426,0.401,0.709,0.52
	c0.284,0.119,0.62,0.178,1.011,0.178c0.583,0,1.118-0.154,1.609-0.463c0.491-0.308,0.921-0.736,1.291-1.283v-5.664H57.373z"/>
<path fill="#FFFFFF" d="M60.333,88.685c0.105-0.365,0.233-0.69,0.379-0.976c0.147-0.286,0.323-0.528,0.528-0.725
	s0.44-0.347,0.707-0.448c0.265-0.101,0.567-0.152,0.907-0.152c0.146,0,0.297,0.011,0.451,0.035c0.154,0.022,0.292,0.067,0.414,0.132
	l-0.031,0.061c-0.01,0.015-0.019,0.029-0.026,0.042c-0.007,0.012-0.024,0.019-0.049,0.019c-0.025,0-0.059-0.007-0.1-0.019
	c-0.04-0.013-0.089-0.027-0.147-0.042c-0.059-0.015-0.129-0.029-0.212-0.042c-0.084-0.012-0.185-0.019-0.3-0.019
	c-0.335,0-0.632,0.053-0.889,0.16c-0.259,0.106-0.488,0.263-0.688,0.47c-0.2,0.208-0.377,0.469-0.531,0.783
	c-0.155,0.314-0.292,0.678-0.414,1.093v4.89h-0.182v-7.441h0.045c0.07,0,0.106,0.04,0.106,0.121L60.333,88.685z"/>
<path fill="#FFFFFF" d="M69.133,87.158c-0.015,0.031-0.04,0.045-0.076,0.045c-0.04,0-0.1-0.034-0.178-0.102
	c-0.079-0.068-0.193-0.144-0.342-0.228c-0.149-0.083-0.338-0.16-0.566-0.232c-0.227-0.07-0.508-0.106-0.842-0.106
	c-0.314,0-0.602,0.048-0.862,0.145c-0.261,0.096-0.484,0.223-0.672,0.383c-0.188,0.159-0.333,0.343-0.437,0.551
	c-0.104,0.207-0.155,0.425-0.155,0.653c0,0.268,0.063,0.492,0.189,0.671c0.127,0.18,0.293,0.332,0.497,0.456
	c0.205,0.124,0.439,0.229,0.702,0.315c0.264,0.086,0.532,0.171,0.806,0.254c0.272,0.084,0.542,0.172,0.805,0.266
	c0.263,0.094,0.497,0.212,0.702,0.353c0.205,0.142,0.371,0.316,0.497,0.52c0.127,0.205,0.189,0.46,0.189,0.764
	c0,0.303-0.054,0.589-0.163,0.857c-0.108,0.269-0.267,0.502-0.474,0.699c-0.208,0.197-0.463,0.354-0.764,0.471
	c-0.302,0.116-0.645,0.174-1.028,0.174c-0.269,0-0.509-0.021-0.722-0.064c-0.212-0.043-0.407-0.103-0.584-0.179
	c-0.179-0.075-0.346-0.169-0.502-0.281c-0.156-0.111-0.312-0.235-0.464-0.372l0.047-0.045c0.015-0.015,0.027-0.027,0.037-0.035
	c0.011-0.007,0.028-0.011,0.054-0.011c0.041,0,0.105,0.043,0.198,0.129c0.091,0.086,0.218,0.182,0.383,0.289
	c0.164,0.106,0.373,0.202,0.626,0.288c0.253,0.087,0.562,0.129,0.927,0.129c0.364,0,0.688-0.053,0.968-0.159
	c0.281-0.105,0.518-0.252,0.71-0.437c0.192-0.184,0.338-0.399,0.437-0.645c0.099-0.245,0.147-0.51,0.147-0.794
	c0-0.288-0.063-0.527-0.188-0.717c-0.127-0.19-0.293-0.35-0.498-0.482s-0.439-0.242-0.702-0.33
	c-0.264-0.089-0.532-0.173-0.805-0.255c-0.273-0.08-0.542-0.167-0.806-0.258c-0.263-0.091-0.497-0.203-0.702-0.338
	c-0.204-0.134-0.37-0.3-0.496-0.497c-0.127-0.197-0.19-0.443-0.19-0.736c0-0.249,0.055-0.485,0.167-0.711
	c0.111-0.225,0.268-0.425,0.47-0.599c0.203-0.175,0.444-0.314,0.726-0.418c0.28-0.104,0.591-0.155,0.931-0.155
	c0.42,0,0.789,0.056,1.108,0.17c0.318,0.114,0.628,0.3,0.926,0.558L69.133,87.158z"/>
<path fill="#FFFFFF" d="M97.712,20.645c-0.055,0-0.1,0.045-0.1,0.1v1.928c0,0.055,0.045,0.1,0.1,0.1h0.482
	c0.055,0,0.1-0.045,0.1-0.1v-1.928c0-0.055-0.045-0.1-0.1-0.1H97.712z M98.095,22.573h-0.283v-1.729h0.283V22.573z"/>
<path fill="#FFFFFF" d="M99.64,20.645c-0.055,0-0.099,0.045-0.099,0.1v1.928c0,0.055,0.044,0.1,0.099,0.1h0.483
	c0.054,0,0.099-0.045,0.099-0.1v-1.928c0-0.055-0.045-0.1-0.099-0.1H99.64z M100.023,22.573h-0.282v-1.729h0.282V22.573z"/>
<path fill="#FFFFFF" d="M101.568,20.645c-0.054,0-0.099,0.045-0.099,0.1v1.928c0,0.055,0.045,0.1,0.099,0.1h0.483
	c0.055,0,0.099-0.045,0.099-0.1v-1.928c0-0.055-0.044-0.1-0.099-0.1H101.568z M101.952,22.573h-0.283v-1.729h0.283V22.573z"/>
<path fill="#FFFFFF" d="M102.391,20.446v-0.241c0-0.055-0.045-0.1-0.099-0.1h-4.821c-0.055,0-0.099,0.045-0.099,0.1v0.241
	c0,0.055,0.044,0.099,0.099,0.099h4.821C102.346,20.545,102.391,20.501,102.391,20.446 M102.192,20.346h-4.62v-0.042h4.62V20.346z"
	/>
<g>
	<defs>
		<rect id="SVGID_1_" x="96.951" y="17.6" width="5.979" height="6.352"/>
	</defs>
	<clipPath id="SVGID_2_">
		<use xlink:href="#SVGID_1_"  overflow="visible"/>
	</clipPath>
	<path clip-path="url(#SVGID_2_)" fill="#FFFFFF" d="M102.512,19.565H97.25c-0.056,0-0.1,0.045-0.1,0.1v0.241
		c0,0.055,0.044,0.099,0.1,0.099h5.262c0.055,0,0.101-0.044,0.101-0.099v-0.241C102.613,19.61,102.567,19.565,102.512,19.565
		 M102.414,19.806H97.35v-0.042h5.063V19.806z"/>
	<path clip-path="url(#SVGID_2_)" fill="#FFFFFF" d="M102.75,19.174l-2.82-1.561c-0.03-0.017-0.066-0.017-0.097,0l-2.832,1.567
		c-0.04,0.021-0.06,0.068-0.048,0.112c0.011,0.043,0.051,0.074,0.096,0.074h5.664h0.001c0.057,0,0.102-0.044,0.102-0.099
		C102.816,19.224,102.789,19.188,102.75,19.174 M97.436,19.167l2.445-1.353l2.446,1.353H97.436z"/>
</g>
<path fill="#FFFFFF" d="M97.373,23.213c0,0.055,0.044,0.1,0.099,0.1h4.821c0.054,0,0.099-0.045,0.099-0.1v-0.241
	c0-0.055-0.045-0.1-0.099-0.1h-4.821c-0.055,0-0.099,0.045-0.099,0.1V23.213z M97.572,23.072h4.62v0.042h-4.62V23.072z"/>
<path fill="#FFFFFF" d="M102.513,23.413H97.25c-0.055,0-0.099,0.044-0.099,0.099v0.242c0,0.055,0.044,0.099,0.099,0.099h5.264
	c0.055,0,0.1-0.044,0.1-0.099v-0.242C102.613,23.457,102.568,23.413,102.513,23.413 M102.413,23.653H97.35v-0.042h5.063V23.653z"/>
<path fill="#FFFFFF" d="M99.483,18.62c0,0.22,0.179,0.399,0.398,0.399s0.398-0.179,0.398-0.399c0-0.219-0.179-0.398-0.398-0.398
	S99.483,18.4,99.483,18.62 M100.081,18.62c0,0.11-0.09,0.2-0.199,0.2c-0.11,0-0.198-0.09-0.198-0.2s0.088-0.199,0.198-0.199
	C99.991,18.421,100.081,18.51,100.081,18.62"/>
<path fill-rule="evenodd" clip-rule="evenodd" fill="#FFFFFF" d="M128.417,18.567h-1.281c-0.078,0-0.171,0.013-0.224,0.078
	c-0.065,0.066-0.092,0.146-0.092,0.225v2.401c0,0.08,0.026,0.16,0.092,0.227c0.053,0.064,0.146,0.104,0.224,0.104h1.281V18.567z
	 M130.265,18.54h-1.268v3.035h1.268c0.078,0,0.172-0.039,0.225-0.106c0.064-0.052,0.105-0.144,0.105-0.224v-2.389
	c0-0.079-0.041-0.171-0.105-0.237C130.437,18.567,130.343,18.54,130.265,18.54 M130.437,23.317l-0.106-0.185l-0.026-0.04h-2.996
	h0.014l-0.039,0.054l-0.079,0.171H130.437z M126.953,23.74h3.708l-0.146-0.251h-3.418L126.953,23.74z M126.702,24.175h4.21
	l-0.145-0.263h-3.92L126.702,24.175z M131.017,24.346h-4.408l-0.145,0.251h4.698L131.017,24.346z M126.953,17.788h0.989v-0.211
	c0-0.106,0.079-0.172,0.159-0.172h1.239c0.08,0,0.172,0.066,0.172,0.172v0.211h0.871c0.305,0,0.567,0.119,0.766,0.317
	c0.185,0.185,0.304,0.436,0.304,0.726v3.67c0,0.171-0.053,0.315-0.158,0.422c-0.105,0.106-0.251,0.17-0.422,0.17h-0.066l0.964,1.69
	l0.025,0.053l-0.04,0.014l-0.303,0.171l-0.04,0.013L131.4,25.02l-0.158-0.251h-4.883l-0.146,0.251l-0.013,0.04l-0.026-0.027
	l-0.316-0.184l-0.04-0.014l0.026-0.026l0.977-1.717h-0.158c-0.198,0-0.357-0.091-0.488-0.197c-0.12-0.119-0.212-0.304-0.212-0.501
	v-3.617c0-0.277,0.106-0.527,0.291-0.698C126.424,17.893,126.674,17.788,126.953,17.788"/>
<path fill-rule="evenodd" clip-rule="evenodd" fill="#4798C9" d="M128.998,18.54v3.035h1.268c0.079,0,0.171-0.04,0.224-0.106
	c0.066-0.052,0.106-0.145,0.106-0.224v-2.389c0-0.079-0.04-0.171-0.106-0.237c-0.053-0.053-0.145-0.079-0.224-0.079H128.998z"/>
<path fill-rule="evenodd" clip-rule="evenodd" fill="#4798C9" d="M128.417,21.602v-3.035h-1.281c-0.078,0-0.171,0.013-0.224,0.078
	c-0.065,0.066-0.093,0.146-0.093,0.225v2.401c0,0.08,0.027,0.16,0.093,0.226c0.053,0.065,0.146,0.105,0.224,0.105H128.417z"/>
<path fill-rule="evenodd" clip-rule="evenodd" fill="#4798C9" d="M127.19,21.892c0.25,0,0.448,0.211,0.448,0.448
	c0,0.251-0.198,0.449-0.448,0.449c-0.251,0-0.448-0.198-0.448-0.449C126.742,22.103,126.939,21.892,127.19,21.892"/>
<path fill-rule="evenodd" clip-rule="evenodd" fill="#4798C9" d="M130.384,21.892c0.237,0,0.435,0.211,0.435,0.448
	c0,0.251-0.197,0.449-0.435,0.449c-0.252,0-0.449-0.198-0.449-0.449C129.935,22.103,130.132,21.892,130.384,21.892"/>
<path fill="#FFFFFF" d="M184.705,18.861c-0.105,0-0.189,0.084-0.189,0.19v1.223c0,0.152-0.061,0.437-0.388,0.547v-1.768
	c0-0.106-0.084-0.19-0.188-0.19c-0.106,0-0.19,0.084-0.19,0.19v1.768c-0.228-0.076-0.394-0.297-0.394-0.547v-1.223
	c0-0.106-0.084-0.19-0.19-0.19c-0.104,0-0.188,0.084-0.188,0.19v1.223c0,0.531,0.431,0.957,0.957,0.957
	c0.793-0.047,0.958-0.705,0.958-0.957v-1.223C184.895,18.943,184.811,18.861,184.705,18.861"/>
<path fill="#FFFFFF" d="M192.541,20.114c0,0.587-0.299,1.063-0.668,1.063c-0.368,0-0.669-0.476-0.669-1.063s0.301-1.063,0.669-1.063
	C192.242,19.051,192.541,19.527,192.541,20.114"/>
<path fill="#FFFFFF" d="M188.091,18.786c-1.61,0-2.916,1.305-2.916,2.915c0,1.61,1.306,2.916,2.916,2.916s2.916-1.306,2.916-2.916
	C191.007,20.091,189.702,18.786,188.091,18.786 M188.091,23.585c-1.04,0-1.884-0.844-1.884-1.884c0-1.039,0.844-1.884,1.884-1.884
	s1.884,0.845,1.884,1.884C189.975,22.741,189.131,23.585,188.091,23.585"/>
<path fill="#FFFFFF" d="M188.091,20.198c-0.831,0-1.503,0.674-1.503,1.503c0,0.828,0.674,1.502,1.503,1.502
	c0.828,0,1.503-0.672,1.503-1.502C189.594,20.87,188.922,20.198,188.091,20.198"/>
<path fill="#FFFFFF" d="M183.71,21.588l-0.093,2.429c-0.008,0.182,0.138,0.334,0.319,0.334s0.326-0.152,0.318-0.334l-0.1-2.423
	C184.056,21.61,183.868,21.623,183.71,21.588"/>
<path fill="#FFFFFF" d="M191.66,21.527l-0.105,2.492c-0.008,0.181,0.137,0.334,0.318,0.334s0.326-0.153,0.319-0.334l-0.106-2.492
	C191.953,21.57,191.759,21.564,191.66,21.527"/>
<path fill-rule="evenodd" clip-rule="evenodd" fill="#FFFFFF" d="M156.476,23.729l-0.013-0.013l0.14-1.244
	c0.395-0.064,0.685-0.406,0.685-0.825v-0.051l1.041-0.165l0.077,0.889l0.113,1.015l-1.357,0.254L156.476,23.729z M155.778,21.646
	c0-0.241,0.152-0.47,0.368-0.584v0.977h0.647v-0.965c0.204,0.115,0.343,0.331,0.343,0.572c0,0.368-0.305,0.673-0.673,0.673
	C156.083,22.319,155.778,22.015,155.778,21.646 M156.26,23.677l-0.99-0.19l0.152-0.901l0.432-0.356
	c0.14,0.14,0.318,0.229,0.533,0.255L156.26,23.677z M154.509,23.348l0.215-1.879l0.901,0.14v0.038c0,0.203,0.063,0.38,0.178,0.52
	l-0.469,0.381l-0.141,0.926L154.509,23.348z M156.07,20.911c-0.19,0.101-0.343,0.279-0.406,0.482l-0.9-0.14l-0.242-2.018
	l0.939,0.394v0.152c0.686,0,0.381,0.025,0,0.025h-0.164l-0.546,0.559l0.546,0.546H156.07z M158.304,21.215l-1.054,0.165
	c-0.063-0.165-0.165-0.305-0.292-0.406c0-0.013,0.013-0.038,0.039-0.063h0.24v-0.686l0.013-0.013l1.142-0.152L158.304,21.215z
	 M156.895,20.911l-0.013,0.012l-0.038-0.012H156.895z M158.494,18.98l-0.088,1.003l-1.168,0.152v-0.33h-0.444v-0.013V19.78h0.838
	l0.546-0.546l-0.063-0.076L158.494,18.98z M158.608,20.035l1.765,0.444l-0.127,0.914l-1.727-0.203L158.608,20.035z M158.723,18.854
	l1.764,0.673l-0.114,0.952l-1.765-0.444L158.723,18.854z M157.593,19.691l0.444-0.457l-0.444-0.457h-0.901v-0.216
	c0-0.127-0.102-0.228-0.229-0.228s-0.229,0.101-0.229,0.228v0.216h-0.673v0.914h0.673v0.216h-0.9l-0.445,0.457l0.445,0.444h0.9v1.13
	h0.457v-1.13h0.457v-0.901h-0.457v-0.216H157.593z M158.723,23.296l-0.177-1.891l0.012-0.013l1.675,0.216l0.254,2.082
	C158.012,23.119,159.764,23.524,158.723,23.296"/>
<path fill-rule="evenodd" clip-rule="evenodd" fill="#FFFFFF" d="M155.562,18.777v0.914h0.673v0.216h-0.9l-0.445,0.457l0.445,0.444
	h0.9v1.13h0.457v-1.13h0.457v-0.901h-0.457v-0.216h0.901l0.445-0.457l-0.445-0.457h-0.901v-0.216c0-0.127-0.102-0.228-0.229-0.228
	s-0.229,0.101-0.229,0.228v0.216H155.562z"/>
<rect x="-575.784" y="-256.536" fill="none" width="1200" height="1510.116"/>
</svg>
