<?xml version="1.0" encoding="utf-8"?>
<!-- Generator: Adobe Illustrator 16.0.0, SVG Export Plug-In . SVG Version: 6.00 Build 0)  -->
<!DOCTYPE svg PUBLIC "-//W3C//DTD SVG 1.1//EN" "http://www.w3.org/Graphics/SVG/1.1/DTD/svg11.dtd">
<svg version="1.1" id="Слой_1" xmlns="http://www.w3.org/2000/svg" xmlns:xlink="http://www.w3.org/1999/xlink" x="0px" y="0px"
	 width="21.822px" height="28.421px" viewBox="0 0 21.822 28.421" enable-background="new 0 0 21.822 28.421" xml:space="preserve">
<path fill="#E8E8DF" d="M15.471,0H0.744C0.332,0,0,0.332,0,0.977v26.937c0,0.176,0.332,0.509,0.744,0.509h20.337
	c0.409,0,0.741-0.333,0.741-0.509V6.587c0-0.355-0.047-0.468-0.129-0.55l-5.905-5.906C15.704,0.047,15.59,0,15.471,0"/>
<polygon fill="#A6A5A5" points="15.733,0.077 15.733,6.092 21.745,6.092 "/>
<path fill="#A6A5A5" d="M21.081,28.421H0.744C0.332,28.421,0,28.089,0,27.677v-7.885h21.822v7.885
	C21.822,28.089,21.49,28.421,21.081,28.421"/>
<path fill="#A6A5A5" d="M14.805,7.605c-0.288-0.403-0.659-0.783-1.173-1.192c-1.985-1.59-2.413-3.186-2.465-3.419V2.538
	c0-0.28-0.229-0.508-0.509-0.508c-0.279,0-0.508,0.228-0.508,0.508v9.344H8.27c-1.97,0-3.194,0.994-3.194,2.598
	c0,1.76,1.138,2.895,2.896,2.895c1.76,0,3.195-1.432,3.195-3.194V8.359l0.15,0.121c0.171,0.171,0.437,0.367,0.771,0.612
	c1.177,0.867,3.146,2.32,2.65,3.955c-0.014,0.05-0.021,0.101-0.021,0.149c0,0.218,0.141,0.419,0.362,0.485
	c0.047,0.016,0.097,0.023,0.146,0.023c0.218,0,0.419-0.141,0.486-0.362C16.536,10.614,15.499,8.577,14.805,7.605 M10.15,14.18
	c0,1.202-0.976,2.181-2.179,2.181c-1.196,0-1.88-0.687-1.88-1.881c0-1.309,1.184-1.584,2.178-1.584h1.881V14.18z M12.69,8.277
	c-0.29-0.216-0.54-0.399-0.697-0.55l-0.826-0.679V5.286c0.419,0.595,1.008,1.259,1.831,1.92c0.437,0.347,0.749,0.662,0.979,0.989
	c0.364,0.508,0.726,1.187,0.91,2.02C14.212,9.397,13.319,8.74,12.69,8.277"/>
<polygon fill="#FFFFFF" points="8.069,21.785 8.917,21.785 8.917,26.898 8.069,26.898 8.069,23.381 6.924,26.226 6.191,26.226 
	5.038,23.381 5.038,26.898 4.19,26.898 4.19,21.785 5.038,21.785 6.557,25.283 "/>
<path fill="#FFFFFF" d="M11.018,26.898h-0.832v-5.113h1.472c0.219,0,0.434,0.035,0.645,0.104c0.213,0.069,0.403,0.173,0.572,0.312
	c0.169,0.14,0.305,0.306,0.408,0.504c0.104,0.197,0.159,0.416,0.159,0.662c0,0.26-0.045,0.492-0.134,0.703
	c-0.087,0.211-0.21,0.389-0.367,0.533c-0.158,0.141-0.347,0.254-0.569,0.332c-0.222,0.079-0.466,0.119-0.736,0.119h-0.617V26.898z
	 M11.018,22.417v2.023h0.763c0.103,0,0.204-0.017,0.304-0.052c0.101-0.034,0.19-0.091,0.273-0.17
	c0.082-0.077,0.152-0.188,0.202-0.328c0.049-0.142,0.076-0.317,0.076-0.524c0-0.082-0.012-0.178-0.035-0.287
	s-0.071-0.213-0.143-0.313c-0.07-0.1-0.171-0.184-0.301-0.251c-0.131-0.067-0.302-0.099-0.515-0.099H11.018z"/>
<path fill="#FFFFFF" d="M16.298,24.207c0.107,0.013,0.217,0.049,0.33,0.104c0.114,0.055,0.219,0.135,0.315,0.235
	c0.099,0.103,0.178,0.226,0.245,0.372c0.063,0.146,0.097,0.313,0.097,0.503c0,0.231-0.035,0.433-0.102,0.601
	c-0.067,0.168-0.151,0.309-0.252,0.418c-0.104,0.112-0.216,0.2-0.346,0.268c-0.127,0.066-0.251,0.117-0.37,0.148
	c-0.12,0.035-0.229,0.055-0.328,0.065c-0.1,0.007-0.179,0.012-0.233,0.012c-0.389,0-0.696-0.026-0.919-0.079
	c-0.226-0.052-0.382-0.107-0.469-0.164l0.186-0.597c0.042,0.024,0.082,0.05,0.119,0.077s0.089,0.054,0.159,0.078
	c0.069,0.025,0.165,0.048,0.292,0.063c0.124,0.018,0.295,0.025,0.513,0.025c0.32,0,0.558-0.088,0.714-0.26
	c0.158-0.174,0.237-0.393,0.237-0.655c0-0.25-0.074-0.46-0.215-0.632c-0.145-0.17-0.354-0.258-0.632-0.258h-0.709h0.008
	l-0.008-0.563h0.474c0.101,0,0.203-0.002,0.307-0.005c0.104-0.005,0.203-0.032,0.295-0.077c0.095-0.047,0.169-0.123,0.23-0.234
	c0.06-0.113,0.089-0.271,0.089-0.479c0-0.084-0.007-0.172-0.019-0.266c-0.016-0.092-0.053-0.178-0.116-0.258
	c-0.063-0.076-0.155-0.142-0.273-0.191c-0.122-0.047-0.288-0.071-0.501-0.071s-0.382,0.021-0.51,0.06
	c-0.127,0.037-0.223,0.069-0.288,0.094l-0.243-0.625c0.112-0.031,0.251-0.066,0.414-0.104s0.401-0.057,0.712-0.057
	c0.215,0,0.421,0.027,0.616,0.082c0.194,0.052,0.364,0.137,0.511,0.253c0.145,0.114,0.261,0.263,0.348,0.444
	c0.084,0.181,0.129,0.391,0.129,0.639c0,0.141-0.028,0.271-0.077,0.393c-0.052,0.115-0.117,0.219-0.196,0.307
	c-0.077,0.086-0.166,0.16-0.263,0.218C16.473,24.15,16.382,24.189,16.298,24.207"/>
</svg>
