<?xml version="1.0" encoding="utf-8"?>
<!-- Generator: Adobe Illustrator 16.0.0, SVG Export Plug-In . SVG Version: 6.00 Build 0)  -->
<!DOCTYPE svg PUBLIC "-//W3C//DTD SVG 1.1//EN" "http://www.w3.org/Graphics/SVG/1.1/DTD/svg11.dtd">
<svg version="1.1" id="Слой_1" xmlns="http://www.w3.org/2000/svg" xmlns:xlink="http://www.w3.org/1999/xlink" x="0px" y="0px"
	 width="41.615px" height="35.408px" viewBox="0 0 41.615 35.408" enable-background="new 0 0 41.615 35.408" xml:space="preserve">
<path fill="#FFFFFF" d="M8.214,15.767v19.642h5.295V14.096h-1.981C10.601,14.913,9.466,15.501,8.214,15.767"/>
<polygon fill="#FFFFFF" points="15.043,14.096 15.043,35.408 20.04,35.408 20.04,14.021 15.043,14.021 "/>
<path fill="#FFFFFF" d="M28.108,14.096v21.312h5.295V15.767c-1.253-0.266-2.389-0.854-3.315-1.671H28.108z"/>
<path fill="#FFFFFF" d="M33.911,0H7.704C3.456,0,0,3.456,0,7.704c0,3.688,3,6.688,6.688,6.688c1.667,0,3.301-0.754,4.388-2.015
	c0.862-1,1.39-2.297,1.404-3.714c-0.034-2.08-1.649-3.761-3.63-3.761c-2.002,0-3.631,1.717-3.631,3.828H3.684
	C3.684,5.773,6,3.367,8.85,3.367c0.53,0,1.042,0.083,1.522,0.238c1.627,0.521,2.899,1.871,3.399,3.495
	c0.54,1.753,0.126,3.733-0.807,5.277h15.687c-0.933-1.544-1.347-3.524-0.808-5.277c0.501-1.624,1.772-2.973,3.398-3.495
	c0.482-0.155,0.994-0.238,1.524-0.238c2.848,0,5.166,2.406,5.166,5.363h-1.535c0-2.111-1.629-3.828-3.631-3.828
	c-1.981,0-3.596,1.681-3.63,3.761c0.015,1.417,0.542,2.714,1.403,3.714c1.087,1.261,2.722,2.015,4.389,2.015
	c3.687,0,6.687-3,6.687-6.688C41.615,3.456,38.159,0,33.911,0"/>
<polygon fill="#FFFFFF" points="21.575,14.096 21.575,35.408 26.572,35.408 26.572,14.021 21.575,14.021 "/>
</svg>
