<?xml version="1.0" encoding="utf-8"?>
<!-- Generator: Adobe Illustrator 16.0.0, SVG Export Plug-In . SVG Version: 6.00 Build 0)  -->
<!DOCTYPE svg PUBLIC "-//W3C//DTD SVG 1.1//EN" "http://www.w3.org/Graphics/SVG/1.1/DTD/svg11.dtd">
<svg version="1.1" id="Слой_1" xmlns="http://www.w3.org/2000/svg" xmlns:xlink="http://www.w3.org/1999/xlink" x="0px" y="0px"
	 width="35.699px" height="22.156px" viewBox="0 0 35.699 22.156" enable-background="new 0 0 35.699 22.156" xml:space="preserve">
<path fill="#A6A5A5" d="M13.465,6.732C13.465,3.02,10.444,0,6.732,0S0,3.02,0,6.732c0,1.087,0.261,2.116,0.721,3.026l6.012,12.398
	l6.013-12.4C13.204,8.846,13.465,7.819,13.465,6.732 M6.732,10.457c-2.054,0-3.725-1.671-3.725-3.725
	c0-2.054,1.671-3.726,3.725-3.726s3.725,1.672,3.725,3.726C10.457,8.786,8.786,10.457,6.732,10.457"/>
<path fill="#A6A5A5" d="M31.61,0.191c-2.254,0-4.089,1.834-4.089,4.089c0,0.66,0.158,1.284,0.437,1.837l3.652,7.53l3.652-7.531
	c0.278-0.552,0.437-1.177,0.437-1.836C35.699,2.025,33.864,0.191,31.61,0.191 M31.61,6.542c-1.248,0-2.263-1.015-2.263-2.262
	c0-1.248,1.015-2.263,2.263-2.263s2.262,1.015,2.262,2.263C33.872,5.527,32.858,6.542,31.61,6.542"/>
<polygon fill="#E8E8DF" points="17.869,11.584 17.17,11.573 16.819,12.298 13.822,18.512 9.474,18.417 7.661,22.155 14.893,21.998 
	16.172,21.97 16.503,20.901 18.701,13.825 30.808,13.612 29.926,11.795 "/>
</svg>
